<?xml version="1.0" encoding="UTF-8"?>
<!DOCTYPE svg PUBLIC "-//W3C//DTD SVG 1.1//EN" "http://www.w3.org/Graphics/SVG/1.1/DTD/svg11.dtd">
<svg xmlns="http://www.w3.org/2000/svg" version="1.1" width="420px" height="420px" style="shape-rendering:geometricPrecision; text-rendering:geometricPrecision; image-rendering:optimizeQuality; fill-rule:evenodd; clip-rule:evenodd" xmlns:xlink="http://www.w3.org/1999/xlink">
<g><path style="opacity:1" fill="#513a2d" d="M 194.5,74.5 C 225.367,70.5755 253.7,77.4089 279.5,95C 281.439,96.4321 282.772,98.2654 283.5,100.5C 283.756,104.754 283.256,109.087 282,113.5C 277.574,115.962 273.407,118.796 269.5,122C 253.764,126.314 237.764,129.147 221.5,130.5C 221.5,126.5 221.5,122.5 221.5,118.5C 222.468,120.607 222.802,122.941 222.5,125.5C 236.024,124.562 249.357,122.396 262.5,119C 268.308,115.595 271.974,110.595 273.5,104C 273.259,102.016 272.592,100.183 271.5,98.5C 268.656,96.1553 265.99,93.6553 263.5,91C 252.485,87.0786 241.152,84.0786 229.5,82C 223.518,81.001 217.518,80.6677 211.5,81C 212.163,82.5185 213.163,83.6851 214.5,84.5C 217.656,91.6311 219.989,98.9644 221.5,106.5C 216.663,99.4924 212.829,91.8257 210,83.5C 207.29,81.3119 204.29,79.6452 201,78.5C 200.342,76.892 200.842,75.7253 202.5,75C 199.854,74.5026 197.187,74.3359 194.5,74.5 Z"/></g>
<g><path style="opacity:1" fill="#775b4e" d="M 221.5,110.5 C 221.5,109.167 221.5,107.833 221.5,106.5C 219.989,98.9644 217.656,91.6311 214.5,84.5C 229.158,83.4967 243.158,86.9967 256.5,95C 261.161,98.6413 262.327,103.141 260,108.5C 257.958,110.604 255.458,111.771 252.5,112C 243.5,112.667 234.5,112.667 225.5,112C 224.255,111.209 222.922,110.709 221.5,110.5 Z"/></g>
<g><path style="opacity:1" fill="#6b5042" d="M 221.5,118.5 C 221.5,115.833 221.5,113.167 221.5,110.5C 222.922,110.709 224.255,111.209 225.5,112C 234.5,112.667 243.5,112.667 252.5,112C 255.458,111.771 257.958,110.604 260,108.5C 262.327,103.141 261.161,98.6413 256.5,95C 243.158,86.9967 229.158,83.4967 214.5,84.5C 213.163,83.6851 212.163,82.5185 211.5,81C 217.518,80.6677 223.518,81.001 229.5,82C 241.152,84.0786 252.485,87.0786 263.5,91C 265.99,93.6553 268.656,96.1553 271.5,98.5C 272.592,100.183 273.259,102.016 273.5,104C 271.974,110.595 268.308,115.595 262.5,119C 249.357,122.396 236.024,124.562 222.5,125.5C 222.802,122.941 222.468,120.607 221.5,118.5 Z"/></g>
<g><path style="opacity:1" fill="#231207" d="M 172.5,124.5 C 172.971,125.901 173.638,127.234 174.5,128.5C 178.968,131.137 183.302,133.97 187.5,137C 190.737,138.452 194.07,139.619 197.5,140.5C 198.127,141.417 198.461,142.417 198.5,143.5C 188.185,142.428 177.851,141.428 167.5,140.5C 161.777,140.794 156.11,141.461 150.5,142.5C 141.717,141.809 133.05,140.476 124.5,138.5C 120.635,138.08 117.302,139.08 114.5,141.5C 113.119,136.595 112.119,131.595 111.5,126.5C 111.564,123.65 112.23,120.983 113.5,118.5C 123.931,113.211 134.931,112.045 146.5,115C 155.229,118.176 163.895,121.342 172.5,124.5 Z"/></g>
<g><path style="opacity:1" fill="#463024" d="M 194.5,74.5 C 197.187,74.3359 199.854,74.5026 202.5,75C 200.842,75.7253 200.342,76.892 201,78.5C 204.29,79.6452 207.29,81.3119 210,83.5C 212.829,91.8257 216.663,99.4924 221.5,106.5C 221.5,107.833 221.5,109.167 221.5,110.5C 221.5,113.167 221.5,115.833 221.5,118.5C 221.5,122.5 221.5,126.5 221.5,130.5C 237.764,129.147 253.764,126.314 269.5,122C 273.407,118.796 277.574,115.962 282,113.5C 283.256,109.087 283.756,104.754 283.5,100.5C 288.178,103.515 292.178,107.181 295.5,111.5C 294.468,118.22 291.301,123.887 286,128.5C 285.667,121.167 285.333,113.833 285,106.5C 284.727,111.229 284.061,115.896 283,120.5C 279.407,123.599 275.241,125.766 270.5,127C 253.839,129.61 237.173,132.11 220.5,134.5C 220.831,125.808 220.498,117.141 219.5,108.5C 218.684,106.713 217.684,105.046 216.5,103.5C 215.505,108.792 215.172,114.125 215.5,119.5C 214.226,111.65 213.06,103.65 212,95.5C 209.409,89.4095 205.242,84.7429 199.5,81.5C 191.726,80.1876 184.059,80.6876 176.5,83C 188.054,90.8315 194.721,101.665 196.5,115.5C 194.39,114.547 193.223,112.881 193,110.5C 192.667,111.833 192.333,113.167 192,114.5C 188.44,108.551 184.274,103.051 179.5,98C 174.929,96.0927 170.596,93.7593 166.5,91C 164.833,90.3333 163.167,90.3333 161.5,91C 166.949,95.7755 172.449,100.609 178,105.5C 182.289,112.284 187.123,118.617 192.5,124.5C 194.798,127.891 195.965,131.558 196,135.5C 189.425,133.921 183.592,130.921 178.5,126.5C 176.589,125.523 174.589,124.857 172.5,124.5C 163.895,121.342 155.229,118.176 146.5,115C 134.931,112.045 123.931,113.211 113.5,118.5C 118.513,105.323 127.846,96.8232 141.5,93C 156.746,79.9374 174.413,73.7707 194.5,74.5 Z"/></g>
<g><path style="opacity:1" fill="#725649" d="M 180.5,114.5 C 182.824,118.152 185.491,121.485 188.5,124.5C 187.833,124.833 187.167,125.167 186.5,125.5C 183.801,123.653 180.801,122.653 177.5,122.5C 176.358,120.567 174.692,119.067 172.5,118C 159.946,114.26 147.279,110.927 134.5,108C 132.579,107.64 130.912,106.806 129.5,105.5C 132.099,103.841 134.766,102.174 137.5,100.5C 143.807,99.3361 150.141,99.1694 156.5,100C 164.392,105.108 172.392,109.941 180.5,114.5 Z"/></g>
<g><path style="opacity:1" fill="#5e4437" d="M 180.5,114.5 C 172.392,109.941 164.392,105.108 156.5,100C 150.141,99.1694 143.807,99.3361 137.5,100.5C 134.766,102.174 132.099,103.841 129.5,105.5C 130.912,106.806 132.579,107.64 134.5,108C 147.279,110.927 159.946,114.26 172.5,118C 174.692,119.067 176.358,120.567 177.5,122.5C 160.647,115.11 142.981,110.777 124.5,109.5C 124.33,108.178 124.663,107.011 125.5,106C 134.331,98.2073 144.665,95.5407 156.5,98C 160.272,98.406 163.939,99.2393 167.5,100.5C 171.855,105.187 176.188,109.854 180.5,114.5 Z"/></g>
<g><path style="opacity:1" fill="#6e5245" d="M 215.5,119.5 C 215.5,122.5 215.5,125.5 215.5,128.5C 210.243,127.71 205.243,126.043 200.5,123.5C 199.663,120.493 198.33,117.826 196.5,115.5C 194.721,101.665 188.054,90.8315 176.5,83C 184.059,80.6876 191.726,80.1876 199.5,81.5C 205.242,84.7429 209.409,89.4095 212,95.5C 213.06,103.65 214.226,111.65 215.5,119.5 Z"/></g>
<g><path style="opacity:1" fill="#221005" d="M 277.5,146.5 C 274.833,145.833 272.167,145.167 269.5,144.5C 257.593,142.239 245.593,141.906 233.5,143.5C 229.167,143.5 224.833,143.5 220.5,143.5C 222.776,141.416 225.443,139.916 228.5,139C 245.908,134.071 263.574,133.238 281.5,136.5C 280.724,140.052 279.391,143.386 277.5,146.5 Z"/></g>
<g><path style="opacity:1" fill="#8a5c38" d="M 198.5,143.5 C 205.878,144.309 213.211,144.309 220.5,143.5C 224.833,143.5 229.167,143.5 233.5,143.5C 233.5,143.833 233.5,144.167 233.5,144.5C 221.181,145.253 208.848,145.586 196.5,145.5C 195.5,145.5 194.5,145.5 193.5,145.5C 179.728,142.4 165.728,141.9 151.5,144C 148.826,144.67 146.493,145.837 144.5,147.5C 143.833,147.5 143.167,147.5 142.5,147.5C 142.953,146.542 143.619,145.708 144.5,145C 146.723,144.434 148.723,143.6 150.5,142.5C 156.11,141.461 161.777,140.794 167.5,140.5C 177.851,141.428 188.185,142.428 198.5,143.5 Z"/></g>
<g><path style="opacity:1" fill="#e5c4aa" d="M 193.5,145.5 C 182.48,145.168 171.48,145.501 160.5,146.5C 155.149,159.681 155.649,172.681 162,185.5C 163.167,187.333 164.667,188.833 166.5,190C 180.706,193.968 195.039,197.468 209.5,200.5C 222.895,197.651 236.228,194.485 249.5,191C 255.118,188.708 258.618,184.541 260,178.5C 263.14,168.801 263.14,159.135 260,149.5C 258.299,147.59 256.133,146.423 253.5,146C 248.316,145.184 243.316,145.35 238.5,146.5C 224.5,146.5 210.5,146.5 196.5,146.5C 196.5,146.167 196.5,145.833 196.5,145.5C 208.848,145.586 221.181,145.253 233.5,144.5C 247.441,143.751 261.108,145.085 274.5,148.5C 275.011,151.633 275.344,154.8 275.5,158C 274.114,169.476 272.947,180.976 272,192.5C 271.735,194.651 270.735,196.318 269,197.5C 266.901,196.713 264.734,196.38 262.5,196.5C 252.252,195.401 242.585,197.067 233.5,201.5C 232.127,201.343 230.793,201.51 229.5,202C 230.956,202.423 231.456,203.256 231,204.5C 223.584,208.079 220.25,214.079 221,222.5C 220.333,229.167 220.333,235.833 221,242.5C 223.367,248.137 226.534,248.804 230.5,244.5C 231.5,244.833 232.167,245.5 232.5,246.5C 232.86,253.636 229.86,255.802 223.5,253C 221.273,250.436 219.439,247.603 218,244.5C 217.434,237.851 215.767,231.518 213,225.5C 208.363,222.39 205.363,223.724 204,229.5C 202.816,234.454 201.816,239.454 201,244.5C 198.996,249.034 196.163,252.867 192.5,256C 190.193,256.337 188.36,255.504 187,253.5C 186.503,251.19 186.337,248.857 186.5,246.5C 187.73,244.703 188.396,242.703 188.5,240.5C 189.222,240.918 189.722,241.584 190,242.5C 191.785,241.76 193.618,241.093 195.5,240.5C 197.291,232.514 196.458,224.847 193,217.5C 190.012,215.913 187.178,214.247 184.5,212.5C 184.579,211.07 184.246,209.736 183.5,208.5C 186.027,206.847 186.693,204.847 185.5,202.5C 171.553,195.317 157.22,194.65 142.5,200.5C 141.468,187.071 139.801,173.571 137.5,160C 137.464,157.37 137.964,154.87 139,152.5C 141.328,151.336 143.162,149.67 144.5,147.5C 146.493,145.837 148.826,144.67 151.5,144C 165.728,141.9 179.728,142.4 193.5,145.5 Z"/></g>
<g><path style="opacity:1" fill="#f3d5bc" d="M 193.5,145.5 C 194.5,145.5 195.5,145.5 196.5,145.5C 196.5,145.833 196.5,146.167 196.5,146.5C 190.515,147.076 184.515,147.576 178.5,148C 168.762,156.384 166.928,166.217 173,177.5C 180.992,182.579 189.492,186.746 198.5,190C 205.833,192 213.167,192 220.5,190C 228.769,186.864 236.769,183.198 244.5,179C 252.705,166.309 250.705,155.476 238.5,146.5C 243.316,145.35 248.316,145.184 253.5,146C 256.133,146.423 258.299,147.59 260,149.5C 263.14,159.135 263.14,168.801 260,178.5C 258.618,184.541 255.118,188.708 249.5,191C 236.228,194.485 222.895,197.651 209.5,200.5C 195.039,197.468 180.706,193.968 166.5,190C 164.667,188.833 163.167,187.333 162,185.5C 155.649,172.681 155.149,159.681 160.5,146.5C 171.48,145.501 182.48,145.168 193.5,145.5 Z"/></g>
<g><path style="opacity:1" fill="#8e613d" d="M 269.5,144.5 C 272.167,145.167 274.833,145.833 277.5,146.5C 278.795,147.488 280.128,148.488 281.5,149.5C 282.11,150.391 282.443,151.391 282.5,152.5C 278.222,149.538 273.888,146.871 269.5,144.5 Z"/></g>
<g><path style="opacity:1" fill="#fde1c9" d="M 196.5,146.5 C 210.5,146.5 224.5,146.5 238.5,146.5C 250.705,155.476 252.705,166.309 244.5,179C 236.769,183.198 228.769,186.864 220.5,190C 213.167,192 205.833,192 198.5,190C 189.492,186.746 180.992,182.579 173,177.5C 166.928,166.217 168.762,156.384 178.5,148C 184.515,147.576 190.515,147.076 196.5,146.5 Z"/></g>
<g><path style="opacity:1" fill="#91623d" d="M 142.5,147.5 C 139.281,150.264 136.281,153.264 133.5,156.5C 134.412,154.405 135.579,152.405 137,150.5C 138.264,148.393 140.097,147.393 142.5,147.5 Z"/></g>
<g><path style="opacity:1" fill="#473125" d="M 131.5,160.5 C 130.471,162.517 129.471,164.517 128.5,166.5C 127.076,168.515 126.41,170.848 126.5,173.5C 124.771,179.25 123.771,185.25 123.5,191.5C 119.762,188.374 117.262,184.374 116,179.5C 114.179,172.569 113.179,165.569 113,158.5C 118.452,152.035 125.286,149.702 133.5,151.5C 132.598,154.04 131.598,156.54 130.5,159C 130.57,159.765 130.903,160.265 131.5,160.5 Z"/></g>
<g><path style="opacity:1" fill="#422d22" d="M 281.5,149.5 C 287.605,150.05 293.605,151.217 299.5,153C 302.884,154.932 305.718,157.432 308,160.5C 308.468,171.499 306.134,181.833 301,191.5C 299.629,193.041 298.129,194.375 296.5,195.5C 296.672,194.508 296.338,193.842 295.5,193.5C 295.108,184.459 293.441,175.793 290.5,167.5C 289.925,164.088 288.592,161.088 286.5,158.5C 285.66,156.147 284.326,154.147 282.5,152.5C 282.443,151.391 282.11,150.391 281.5,149.5 Z"/></g>
<g><path style="opacity:1" fill="#d1ae93" d="M 142.5,147.5 C 143.167,147.5 143.833,147.5 144.5,147.5C 143.162,149.67 141.328,151.336 139,152.5C 137.964,154.87 137.464,157.37 137.5,160C 139.801,173.571 141.468,187.071 142.5,200.5C 139.991,201.682 138.657,203.682 138.5,206.5C 150.877,201.981 163.544,201.314 176.5,204.5C 176.611,205.117 176.944,205.617 177.5,206C 174.397,206.604 171.73,207.937 169.5,210C 167.5,210.333 165.5,210.667 163.5,211C 161.974,212.887 159.974,213.887 157.5,214C 156.29,215.039 155.29,216.206 154.5,217.5C 149.338,220.143 144.838,223.809 141,228.5C 140.578,230.355 140.078,232.189 139.5,234C 139.57,234.765 139.903,235.265 140.5,235.5C 140.5,236.5 140.5,237.5 140.5,238.5C 139.861,239.097 139.528,239.93 139.5,241C 142.076,250.316 144.409,259.649 146.5,269C 144.618,269.198 142.952,269.698 141.5,270.5C 129.42,270.812 117.42,270.479 105.5,269.5C 103.193,259.937 101.36,250.27 100,240.5C 99.1925,236.973 99.3592,233.64 100.5,230.5C 100.337,232.857 100.503,235.19 101,237.5C 102.049,236.483 103.216,236.316 104.5,237C 110.634,243.545 113.467,251.379 113,260.5C 113.977,262.706 115.143,264.706 116.5,266.5C 116.5,267.5 116.5,268.5 116.5,269.5C 119.5,269.5 122.5,269.5 125.5,269.5C 127.527,269.662 129.527,269.495 131.5,269C 130.672,246.239 130.172,223.406 130,200.5C 127.596,189.234 127.096,177.901 128.5,166.5C 129.471,164.517 130.471,162.517 131.5,160.5C 131.989,159.005 132.655,157.671 133.5,156.5C 136.281,153.264 139.281,150.264 142.5,147.5 Z"/></g>
<g><path style="opacity:1" fill="#342217" d="M 196.5,115.5 C 198.33,117.826 199.663,120.493 200.5,123.5C 205.243,126.043 210.243,127.71 215.5,128.5C 215.5,125.5 215.5,122.5 215.5,119.5C 215.172,114.125 215.505,108.792 216.5,103.5C 217.684,105.046 218.684,106.713 219.5,108.5C 220.498,117.141 220.831,125.808 220.5,134.5C 237.173,132.11 253.839,129.61 270.5,127C 275.241,125.766 279.407,123.599 283,120.5C 284.061,115.896 284.727,111.229 285,106.5C 285.333,113.833 285.667,121.167 286,128.5C 291.301,123.887 294.468,118.22 295.5,111.5C 298.035,116.803 299.201,122.47 299,128.5C 302.817,132.679 304.484,137.679 304,143.5C 311.048,152.204 313.881,162.204 312.5,173.5C 308.709,186.714 305.209,200.047 302,213.5C 301.667,224.167 301.333,234.833 301,245.5C 300.617,246.056 300.117,246.389 299.5,246.5C 298.772,232.665 298.605,218.665 299,204.5C 298.315,201.421 297.481,198.421 296.5,195.5C 298.129,194.375 299.629,193.041 301,191.5C 306.134,181.833 308.468,171.499 308,160.5C 305.718,157.432 302.884,154.932 299.5,153C 293.605,151.217 287.605,150.05 281.5,149.5C 280.128,148.488 278.795,147.488 277.5,146.5C 279.391,143.386 280.724,140.052 281.5,136.5C 263.574,133.238 245.908,134.071 228.5,139C 225.443,139.916 222.776,141.416 220.5,143.5C 213.211,144.309 205.878,144.309 198.5,143.5C 198.461,142.417 198.127,141.417 197.5,140.5C 194.07,139.619 190.737,138.452 187.5,137C 183.302,133.97 178.968,131.137 174.5,128.5C 173.638,127.234 172.971,125.901 172.5,124.5C 174.589,124.857 176.589,125.523 178.5,126.5C 183.592,130.921 189.425,133.921 196,135.5C 195.965,131.558 194.798,127.891 192.5,124.5C 187.123,118.617 182.289,112.284 178,105.5C 172.449,100.609 166.949,95.7755 161.5,91C 163.167,90.3333 164.833,90.3333 166.5,91C 170.596,93.7593 174.929,96.0927 179.5,98C 184.274,103.051 188.44,108.551 192,114.5C 192.333,113.167 192.667,111.833 193,110.5C 193.223,112.881 194.39,114.547 196.5,115.5 Z"/></g>
<g><path style="opacity:1" fill="#d0ac90" d="M 269.5,144.5 C 273.888,146.871 278.222,149.538 282.5,152.5C 284.326,154.147 285.66,156.147 286.5,158.5C 286.952,162.163 287.452,165.83 288,169.5C 288.649,166.063 289.149,165.896 289.5,169C 288.738,177.17 287.904,185.337 287,193.5C 286.815,218.876 286.315,244.209 285.5,269.5C 284.167,269.5 282.833,269.5 281.5,269.5C 284.48,248.881 284.98,228.214 283,207.5C 281.384,208.801 279.884,208.801 278.5,207.5C 279.5,207.5 280.5,207.5 281.5,207.5C 281.5,206.167 281.5,204.833 281.5,203.5C 275.073,201.314 268.74,198.981 262.5,196.5C 264.734,196.38 266.901,196.713 269,197.5C 270.735,196.318 271.735,194.651 272,192.5C 272.947,180.976 274.114,169.476 275.5,158C 275.344,154.8 275.011,151.633 274.5,148.5C 261.108,145.085 247.441,143.751 233.5,144.5C 233.5,144.167 233.5,143.833 233.5,143.5C 245.593,141.906 257.593,142.239 269.5,144.5 Z"/></g>
<g><path style="opacity:1" fill="#c6a184" d="M 286.5,158.5 C 288.592,161.088 289.925,164.088 290.5,167.5C 292.911,180.127 293.078,192.794 291,205.5C 290.5,226.831 290.333,248.164 290.5,269.5C 291.5,269.5 292.5,269.5 293.5,269.5C 296.167,269.5 298.833,269.5 301.5,269.5C 301.5,269.833 301.5,270.167 301.5,270.5C 297.5,270.5 293.5,270.5 289.5,270.5C 288.432,269.566 287.099,269.232 285.5,269.5C 286.315,244.209 286.815,218.876 287,193.5C 287.904,185.337 288.738,177.17 289.5,169C 289.149,165.896 288.649,166.063 288,169.5C 287.452,165.83 286.952,162.163 286.5,158.5 Z"/></g>
<g><path style="opacity:1" fill="#342217" d="M 150.5,142.5 C 148.723,143.6 146.723,144.434 144.5,145C 143.619,145.708 142.953,146.542 142.5,147.5C 140.097,147.393 138.264,148.393 137,150.5C 135.579,152.405 134.412,154.405 133.5,156.5C 132.655,157.671 131.989,159.005 131.5,160.5C 130.903,160.265 130.57,159.765 130.5,159C 131.598,156.54 132.598,154.04 133.5,151.5C 125.286,149.702 118.452,152.035 113,158.5C 113.179,165.569 114.179,172.569 116,179.5C 117.262,184.374 119.762,188.374 123.5,191.5C 122.029,196.053 120.862,200.719 120,205.5C 120.256,219.494 120.256,233.494 120,247.5C 118.989,248.337 117.822,248.67 116.5,248.5C 116.815,244.629 116.482,240.962 115.5,237.5C 115.819,232.637 115.486,227.97 114.5,223.5C 109.78,207.848 106.78,191.848 105.5,175.5C 105.088,163.14 108.088,151.807 114.5,141.5C 117.302,139.08 120.635,138.08 124.5,138.5C 133.05,140.476 141.717,141.809 150.5,142.5 Z"/></g>
<g><path style="opacity:1" fill="#bc9577" d="M 128.5,166.5 C 127.096,177.901 127.596,189.234 130,200.5C 130.172,223.406 130.672,246.239 131.5,269C 129.527,269.495 127.527,269.662 125.5,269.5C 124.986,247.16 123.986,224.827 122.5,202.5C 124.208,192.878 125.541,183.212 126.5,173.5C 126.41,170.848 127.076,168.515 128.5,166.5 Z"/></g>
<g><path style="opacity:1" fill="#b89071" d="M 290.5,167.5 C 293.441,175.793 295.108,184.459 295.5,193.5C 295.138,218.863 294.472,244.196 293.5,269.5C 292.5,269.5 291.5,269.5 290.5,269.5C 290.333,248.164 290.5,226.831 291,205.5C 293.078,192.794 292.911,180.127 290.5,167.5 Z"/></g>
<g><path style="opacity:1" fill="#635044" d="M 185.5,202.5 C 185.586,203.496 185.252,204.329 184.5,205C 181.779,205.602 179.113,205.435 176.5,204.5C 163.544,201.314 150.877,201.981 138.5,206.5C 138.657,203.682 139.991,201.682 142.5,200.5C 157.22,194.65 171.553,195.317 185.5,202.5 Z"/></g>
<g><path style="opacity:1" fill="#665346" d="M 262.5,196.5 C 268.74,198.981 275.073,201.314 281.5,203.5C 281.5,204.833 281.5,206.167 281.5,207.5C 280.5,207.5 279.5,207.5 278.5,207.5C 264.718,201.185 250.718,200.852 236.5,206.5C 233.915,205.927 232.915,204.261 233.5,201.5C 242.585,197.067 252.252,195.401 262.5,196.5 Z"/></g>
<g><path style="opacity:1" fill="#d8b69b" d="M 233.5,201.5 C 232.915,204.261 233.915,205.927 236.5,206.5C 250.718,200.852 264.718,201.185 278.5,207.5C 279.884,208.801 281.384,208.801 283,207.5C 284.98,228.214 284.48,248.881 281.5,269.5C 282.833,269.5 284.167,269.5 285.5,269.5C 287.099,269.232 288.432,269.566 289.5,270.5C 285.5,270.5 281.5,270.5 277.5,270.5C 276.528,269.601 275.862,268.434 275.5,267C 276.524,257.211 278.524,247.711 281.5,238.5C 280.5,238.5 279.5,238.5 278.5,238.5C 278.5,238.167 278.5,237.833 278.5,237.5C 279.641,234.36 279.808,231.027 279,227.5C 276.284,224.283 273.117,221.616 269.5,219.5C 267.847,219.34 266.514,218.674 265.5,217.5C 262.398,215.431 259.398,213.098 256.5,210.5C 256.511,211.441 256.011,212.108 255,212.5C 240.137,206.892 229.47,211.225 223,225.5C 222.333,231.167 222.333,236.833 223,242.5C 224.067,244.283 225.567,244.783 227.5,244C 228.973,243.29 229.64,242.124 229.5,240.5C 229.328,239.508 229.662,238.842 230.5,238.5C 230.5,240.5 230.5,242.5 230.5,244.5C 226.534,248.804 223.367,248.137 221,242.5C 220.333,235.833 220.333,229.167 221,222.5C 220.25,214.079 223.584,208.079 231,204.5C 231.456,203.256 230.956,202.423 229.5,202C 230.793,201.51 232.127,201.343 233.5,201.5 Z"/></g>
<g><path style="opacity:1" fill="#a87d5c" d="M 126.5,173.5 C 125.541,183.212 124.208,192.878 122.5,202.5C 123.986,224.827 124.986,247.16 125.5,269.5C 122.5,269.5 119.5,269.5 116.5,269.5C 116.5,268.5 116.5,267.5 116.5,266.5C 116.012,255.879 113.345,245.879 108.5,236.5C 105.687,234.7 103.687,232.367 102.5,229.5C 105.303,229.961 107.637,231.295 109.5,233.5C 109.996,236.493 111.496,238.826 114,240.5C 114.513,239.473 115.013,238.473 115.5,237.5C 116.482,240.962 116.815,244.629 116.5,248.5C 117.822,248.67 118.989,248.337 120,247.5C 120.256,233.494 120.256,219.494 120,205.5C 120.862,200.719 122.029,196.053 123.5,191.5C 123.771,185.25 124.771,179.25 126.5,173.5 Z"/></g>
<g><path style="opacity:1" fill="#29160c" d="M 312.5,173.5 C 312.465,190.384 309.799,207.051 304.5,223.5C 303.513,228.305 303.179,233.305 303.5,238.5C 302.521,241.625 302.187,244.958 302.5,248.5C 300.821,248.715 299.821,248.048 299.5,246.5C 300.117,246.389 300.617,246.056 301,245.5C 301.333,234.833 301.667,224.167 302,213.5C 305.209,200.047 308.709,186.714 312.5,173.5 Z"/></g>
<g><path style="opacity:1" fill="#a77c5c" d="M 295.5,193.5 C 296.338,193.842 296.672,194.508 296.5,195.5C 297.481,198.421 298.315,201.421 299,204.5C 298.605,218.665 298.772,232.665 299.5,246.5C 299.821,248.048 300.821,248.715 302.5,248.5C 302.187,244.958 302.521,241.625 303.5,238.5C 303.336,241.187 303.503,243.854 304,246.5C 305.513,242.812 307.013,239.145 308.5,235.5C 310.033,233.645 311.7,231.812 313.5,230C 314.448,229.517 315.448,229.351 316.5,229.5C 316.649,230.552 316.483,231.552 316,232.5C 313.828,233.585 311.828,234.919 310,236.5C 305.159,246.873 302.659,257.873 302.5,269.5C 302.167,269.5 301.833,269.5 301.5,269.5C 298.833,269.5 296.167,269.5 293.5,269.5C 294.472,244.196 295.138,218.863 295.5,193.5 Z"/></g>
<g><path style="opacity:1" fill="#c6a184" d="M 265.5,217.5 C 263.708,217.634 262.042,217.301 260.5,216.5C 253.112,215.7 245.612,215.366 238,215.5C 235.248,216.586 232.748,218.086 230.5,220C 231.624,220.249 232.624,220.749 233.5,221.5C 228.713,227.425 227.38,233.758 229.5,240.5C 229.64,242.124 228.973,243.29 227.5,244C 225.567,244.783 224.067,244.283 223,242.5C 222.333,236.833 222.333,231.167 223,225.5C 229.47,211.225 240.137,206.892 255,212.5C 256.011,212.108 256.511,211.441 256.5,210.5C 259.398,213.098 262.398,215.431 265.5,217.5 Z"/></g>
<g><path style="opacity:1" fill="#aa8467" d="M 260.5,216.5 C 253.289,215.804 246.623,217.304 240.5,221C 239.262,221.69 239.262,222.19 240.5,222.5C 238.64,223.939 236.973,225.605 235.5,227.5C 232.512,230.481 230.846,234.148 230.5,238.5C 229.662,238.842 229.328,239.508 229.5,240.5C 227.38,233.758 228.713,227.425 233.5,221.5C 232.624,220.749 231.624,220.249 230.5,220C 232.748,218.086 235.248,216.586 238,215.5C 245.612,215.366 253.112,215.7 260.5,216.5 Z"/></g>
<g><path style="opacity:1" fill="#bf997c" d="M 185.5,202.5 C 186.693,204.847 186.027,206.847 183.5,208.5C 184.246,209.736 184.579,211.07 184.5,212.5C 187.178,214.247 190.012,215.913 193,217.5C 196.458,224.847 197.291,232.514 195.5,240.5C 193.618,241.093 191.785,241.76 190,242.5C 189.722,241.584 189.222,240.918 188.5,240.5C 187.97,235.91 186.636,231.576 184.5,227.5C 182.281,223.529 178.948,220.696 174.5,219C 167.976,216.401 161.309,215.901 154.5,217.5C 155.29,216.206 156.29,215.039 157.5,214C 159.974,213.887 161.974,212.887 163.5,211C 165.5,210.667 167.5,210.333 169.5,210C 171.73,207.937 174.397,206.604 177.5,206C 176.944,205.617 176.611,205.117 176.5,204.5C 179.113,205.435 181.779,205.602 184.5,205C 185.252,204.329 185.586,203.496 185.5,202.5 Z"/></g>
<g><path style="opacity:1" fill="#2a2019" d="M 260.5,216.5 C 262.042,217.301 263.708,217.634 265.5,217.5C 266.514,218.674 267.847,219.34 269.5,219.5C 271.479,222.146 273.812,224.479 276.5,226.5C 277.705,227.995 277.705,229.328 276.5,230.5C 270.459,221.15 261.792,217.15 250.5,218.5C 246.937,219.282 243.603,220.616 240.5,222.5C 239.262,222.19 239.262,221.69 240.5,221C 246.623,217.304 253.289,215.804 260.5,216.5 Z"/></g>
<g><path style="opacity:1" fill="#31271f" d="M 184.5,227.5 C 182.754,225.748 180.754,224.415 178.5,223.5C 175.519,220.512 171.852,218.846 167.5,218.5C 153.686,217.525 144.686,223.192 140.5,235.5C 139.903,235.265 139.57,234.765 139.5,234C 140.078,232.189 140.578,230.355 141,228.5C 144.838,223.809 149.338,220.143 154.5,217.5C 161.309,215.901 167.976,216.401 174.5,219C 178.948,220.696 182.281,223.529 184.5,227.5 Z"/></g>
<g><path style="opacity:1" fill="#463523" d="M 176.5,225.5 C 171.914,222.703 166.914,221.869 161.5,223C 160.058,223.377 159.058,224.21 158.5,225.5C 157.5,225.5 156.5,225.5 155.5,225.5C 154.017,228.791 153.017,232.291 152.5,236C 152.667,237.167 152.833,238.333 153,239.5C 154.926,242.447 156.759,245.447 158.5,248.5C 152.777,245.736 150.111,241.07 150.5,234.5C 150.478,232.035 150.978,229.702 152,227.5C 154.063,225.266 156.229,223.266 158.5,221.5C 164.033,219.858 169.367,220.358 174.5,223C 175.381,223.708 176.047,224.542 176.5,225.5 Z"/></g>
<g><path style="opacity:1" fill="#b2b0af" d="M 167.5,218.5 C 171.852,218.846 175.519,220.512 178.5,223.5C 177.884,224.202 177.884,225.202 178.5,226.5C 177.833,226.167 177.167,225.833 176.5,225.5C 176.047,224.542 175.381,223.708 174.5,223C 169.367,220.358 164.033,219.858 158.5,221.5C 161.353,220.046 164.353,219.046 167.5,218.5 Z"/></g>
<g><path style="opacity:1" fill="#3e2c19" d="M 262.5,222.5 C 263.167,223.5 263.833,224.5 264.5,225.5C 256.486,220.971 248.986,221.638 242,227.5C 239.97,233.255 240.304,238.922 243,244.5C 243.671,245.252 244.504,245.586 245.5,245.5C 245.158,246.338 244.492,246.672 243.5,246.5C 241.926,245.016 240.593,243.349 239.5,241.5C 237.693,223.985 245.36,217.652 262.5,222.5 Z"/></g>
<g><path style="opacity:1" fill="#5c421f" d="M 176.5,225.5 C 177.167,225.833 177.833,226.167 178.5,226.5C 180.67,231.364 181.003,236.364 179.5,241.5C 178.442,240.4 177.608,239.066 177,237.5C 176.292,238.381 175.458,239.047 174.5,239.5C 176.958,233.1 174.958,228.6 168.5,226C 166.19,225.503 163.857,225.337 161.5,225.5C 160.5,225.5 159.5,225.5 158.5,225.5C 159.058,224.21 160.058,223.377 161.5,223C 166.914,221.869 171.914,222.703 176.5,225.5 Z"/></g>
<g><path style="opacity:1" fill="#bcbbba" d="M 250.5,218.5 C 252.969,219.317 255.635,219.817 258.5,220C 260.32,220.2 261.653,221.034 262.5,222.5C 245.36,217.652 237.693,223.985 239.5,241.5C 238.883,241.389 238.383,241.056 238,240.5C 237.004,235.771 237.504,231.271 239.5,227C 238.181,226.805 236.847,226.972 235.5,227.5C 236.973,225.605 238.64,223.939 240.5,222.5C 243.603,220.616 246.937,219.282 250.5,218.5 Z"/></g>
<g><path style="opacity:1" fill="#573d16" d="M 264.5,225.5 C 266.459,228.546 267.293,231.879 267,235.5C 266.64,233.579 265.806,231.912 264.5,230.5C 263.743,229.227 263.077,229.227 262.5,230.5C 258.802,226.454 254.468,225.12 249.5,226.5C 244.833,225.167 243.167,226.833 244.5,231.5C 243.02,235.944 244.02,239.944 247.5,243.5C 246.167,243.5 245.5,244.167 245.5,245.5C 244.504,245.586 243.671,245.252 243,244.5C 240.304,238.922 239.97,233.255 242,227.5C 248.986,221.638 256.486,220.971 264.5,225.5 Z"/></g>
<g><path style="opacity:1" fill="#ddbba0" d="M 317.5,225.5 C 313.105,227.562 310.105,230.896 308.5,235.5C 307.013,239.145 305.513,242.812 304,246.5C 303.503,243.854 303.336,241.187 303.5,238.5C 303.179,233.305 303.513,228.305 304.5,223.5C 304.435,223.938 304.601,224.272 305,224.5C 308.016,221.047 311.516,220.214 315.5,222C 316.305,223.113 316.972,224.279 317.5,225.5 Z"/></g>
<g><path style="opacity:1" fill="#070401" d="M 262.5,230.5 C 262.664,233.187 262.497,235.854 262,238.5C 260.668,240.66 259.168,242.66 257.5,244.5C 254.061,244.747 250.728,244.414 247.5,243.5C 244.02,239.944 243.02,235.944 244.5,231.5C 249.833,233.5 251.5,231.833 249.5,226.5C 254.468,225.12 258.802,226.454 262.5,230.5 Z"/></g>
<g><path style="opacity:1" fill="#e9e7e5" d="M 249.5,226.5 C 251.5,231.833 249.833,233.5 244.5,231.5C 243.167,226.833 244.833,225.167 249.5,226.5 Z"/></g>
<g><path style="opacity:1" fill="#e1c0a4" d="M 114.5,223.5 C 115.486,227.97 115.819,232.637 115.5,237.5C 115.013,238.473 114.513,239.473 114,240.5C 111.496,238.826 109.996,236.493 109.5,233.5C 109.631,232.761 109.464,232.094 109,231.5C 106.582,229.232 104.082,227.232 101.5,225.5C 102.198,222.637 104.031,220.971 107,220.5C 109.581,221.417 111.914,222.751 114,224.5C 114.399,224.272 114.565,223.938 114.5,223.5 Z"/></g>
<g><path style="opacity:1" fill="#8c7664" d="M 269.5,219.5 C 273.117,221.616 276.284,224.283 279,227.5C 279.808,231.027 279.641,234.36 278.5,237.5C 277.833,235.167 277.167,232.833 276.5,230.5C 277.705,229.328 277.705,227.995 276.5,226.5C 273.812,224.479 271.479,222.146 269.5,219.5 Z"/></g>
<g><path style="opacity:1" fill="#73583c" d="M 264.5,225.5 C 267.702,227.576 269.035,230.576 268.5,234.5C 268.757,239.419 267.09,243.419 263.5,246.5C 263.5,245.167 263.5,243.833 263.5,242.5C 261.315,242.704 259.315,243.37 257.5,244.5C 259.168,242.66 260.668,240.66 262,238.5C 262.497,235.854 262.664,233.187 262.5,230.5C 263.077,229.227 263.743,229.227 264.5,230.5C 265.806,231.912 266.64,233.579 267,235.5C 267.293,231.879 266.459,228.546 264.5,225.5 Z"/></g>
<g><path style="opacity:1" fill="#e3e1e1" d="M 167.5,218.5 C 164.353,219.046 161.353,220.046 158.5,221.5C 156.229,223.266 154.063,225.266 152,227.5C 150.978,229.702 150.478,232.035 150.5,234.5C 150.111,241.07 152.777,245.736 158.5,248.5C 160.29,249.997 162.456,250.664 165,250.5C 167.821,250.592 170.321,249.926 172.5,248.5C 175.811,247.189 178.145,244.855 179.5,241.5C 181.003,236.364 180.67,231.364 178.5,226.5C 177.884,225.202 177.884,224.202 178.5,223.5C 180.754,224.415 182.754,225.748 184.5,227.5C 186.636,231.576 187.97,235.91 188.5,240.5C 188.396,242.703 187.73,244.703 186.5,246.5C 168.41,259.307 153.076,256.641 140.5,238.5C 140.5,237.5 140.5,236.5 140.5,235.5C 144.686,223.192 153.686,217.525 167.5,218.5 Z"/></g>
<g><path style="opacity:1" fill="#ebeae8" d="M 158.5,225.5 C 159.5,225.5 160.5,225.5 161.5,225.5C 164.343,230.998 162.677,232.998 156.5,231.5C 156.253,229.142 156.919,227.142 158.5,225.5 Z"/></g>
<g><path style="opacity:1" fill="#060401" d="M 161.5,225.5 C 163.857,225.337 166.19,225.503 168.5,226C 174.958,228.6 176.958,233.1 174.5,239.5C 173.5,241.167 172.167,242.5 170.5,243.5C 160.41,246.054 155.744,242.054 156.5,231.5C 162.677,232.998 164.343,230.998 161.5,225.5 Z"/></g>
<g><path style="opacity:1" fill="#664a27" d="M 158.5,225.5 C 156.919,227.142 156.253,229.142 156.5,231.5C 155.744,242.054 160.41,246.054 170.5,243.5C 169.739,244.391 168.739,245.058 167.5,245.5C 166.614,246.325 166.281,247.325 166.5,248.5C 168.5,248.5 170.5,248.5 172.5,248.5C 170.321,249.926 167.821,250.592 165,250.5C 162.456,250.664 160.29,249.997 158.5,248.5C 156.759,245.447 154.926,242.447 153,239.5C 152.833,238.333 152.667,237.167 152.5,236C 153.017,232.291 154.017,228.791 155.5,225.5C 156.5,225.5 157.5,225.5 158.5,225.5 Z"/></g>
<g><path style="opacity:1" fill="#be9779" d="M 317.5,225.5 C 318.234,226.708 318.567,228.041 318.5,229.5C 318.664,232.187 318.497,234.854 318,237.5C 317.282,236.549 316.449,236.383 315.5,237C 312.922,239.074 310.922,241.574 309.5,244.5C 309.293,253.598 306.959,261.931 302.5,269.5C 302.659,257.873 305.159,246.873 310,236.5C 311.828,234.919 313.828,233.585 316,232.5C 316.483,231.552 316.649,230.552 316.5,229.5C 315.448,229.351 314.448,229.517 313.5,230C 311.7,231.812 310.033,233.645 308.5,235.5C 310.105,230.896 313.105,227.562 317.5,225.5 Z"/></g>
<g><path style="opacity:1" fill="#e2e1e0" d="M 250.5,218.5 C 261.792,217.15 270.459,221.15 276.5,230.5C 277.167,232.833 277.833,235.167 278.5,237.5C 278.5,237.833 278.5,238.167 278.5,238.5C 270.547,251.991 258.881,256.825 243.5,253C 239.184,251.834 235.517,249.667 232.5,246.5C 232.167,245.5 231.5,244.833 230.5,244.5C 230.5,242.5 230.5,240.5 230.5,238.5C 230.846,234.148 232.512,230.481 235.5,227.5C 236.847,226.972 238.181,226.805 239.5,227C 237.504,231.271 237.004,235.771 238,240.5C 238.383,241.056 238.883,241.389 239.5,241.5C 240.593,243.349 241.926,245.016 243.5,246.5C 247.384,250.226 252.051,251.393 257.5,250C 258.737,249.768 259.737,249.268 260.5,248.5C 262.027,248.573 263.027,247.906 263.5,246.5C 267.09,243.419 268.757,239.419 268.5,234.5C 269.035,230.576 267.702,227.576 264.5,225.5C 263.833,224.5 263.167,223.5 262.5,222.5C 261.653,221.034 260.32,220.2 258.5,220C 255.635,219.817 252.969,219.317 250.5,218.5 Z"/></g>
<g><path style="opacity:1" fill="#a98261" d="M 179.5,241.5 C 178.145,244.855 175.811,247.189 172.5,248.5C 170.5,248.5 168.5,248.5 166.5,248.5C 166.281,247.325 166.614,246.325 167.5,245.5C 168.739,245.058 169.739,244.391 170.5,243.5C 172.167,242.5 173.5,241.167 174.5,239.5C 175.458,239.047 176.292,238.381 177,237.5C 177.608,239.066 178.442,240.4 179.5,241.5 Z"/></g>
<g><path style="opacity:1" fill="#bb9374" d="M 101.5,225.5 C 104.082,227.232 106.582,229.232 109,231.5C 109.464,232.094 109.631,232.761 109.5,233.5C 107.637,231.295 105.303,229.961 102.5,229.5C 103.687,232.367 105.687,234.7 108.5,236.5C 113.345,245.879 116.012,255.879 116.5,266.5C 115.143,264.706 113.977,262.706 113,260.5C 113.467,251.379 110.634,243.545 104.5,237C 103.216,236.316 102.049,236.483 101,237.5C 100.503,235.19 100.337,232.857 100.5,230.5C 100.366,228.708 100.699,227.042 101.5,225.5 Z"/></g>
<g><path style="opacity:1" fill="#f6d8c0" d="M 232.5,246.5 C 235.517,249.667 239.184,251.834 243.5,253C 258.881,256.825 270.547,251.991 278.5,238.5C 279.5,238.5 280.5,238.5 281.5,238.5C 278.524,247.711 276.524,257.211 275.5,267C 275.862,268.434 276.528,269.601 277.5,270.5C 260.5,270.5 243.5,270.5 226.5,270.5C 225.38,266.9 224.213,263.233 223,259.5C 218.527,258.764 214.027,259.097 209.5,260.5C 204.831,259.277 200.164,259.277 195.5,260.5C 193.02,263.361 192.02,266.694 192.5,270.5C 175.5,270.5 158.5,270.5 141.5,270.5C 142.952,269.698 144.618,269.198 146.5,269C 144.409,259.649 142.076,250.316 139.5,241C 139.528,239.93 139.861,239.097 140.5,238.5C 153.076,256.641 168.41,259.307 186.5,246.5C 186.337,248.857 186.503,251.19 187,253.5C 188.36,255.504 190.193,256.337 192.5,256C 196.163,252.867 198.996,249.034 201,244.5C 201.816,239.454 202.816,234.454 204,229.5C 205.363,223.724 208.363,222.39 213,225.5C 215.767,231.518 217.434,237.851 218,244.5C 219.439,247.603 221.273,250.436 223.5,253C 229.86,255.802 232.86,253.636 232.5,246.5 Z"/></g>
<g><path style="opacity:1" fill="#7f6041" d="M 247.5,243.5 C 250.728,244.414 254.061,244.747 257.5,244.5C 256.766,245.708 256.433,247.041 256.5,248.5C 257.833,248.5 259.167,248.5 260.5,248.5C 259.737,249.268 258.737,249.768 257.5,250C 252.051,251.393 247.384,250.226 243.5,246.5C 244.492,246.672 245.158,246.338 245.5,245.5C 245.5,244.167 246.167,243.5 247.5,243.5 Z"/></g>
<g><path style="opacity:1" fill="#bd916e" d="M 263.5,246.5 C 263.027,247.906 262.027,248.573 260.5,248.5C 259.167,248.5 257.833,248.5 256.5,248.5C 256.433,247.041 256.766,245.708 257.5,244.5C 259.315,243.37 261.315,242.704 263.5,242.5C 263.5,243.833 263.5,245.167 263.5,246.5 Z"/></g>
<g><path style="opacity:1" fill="#dfbea2" d="M 226.5,270.5 C 223.833,270.5 221.167,270.5 218.5,270.5C 218.253,264.861 215.253,262.194 209.5,262.5C 203.949,262.388 200.949,265.054 200.5,270.5C 197.833,270.5 195.167,270.5 192.5,270.5C 192.02,266.694 193.02,263.361 195.5,260.5C 200.164,259.277 204.831,259.277 209.5,260.5C 214.027,259.097 218.527,258.764 223,259.5C 224.213,263.233 225.38,266.9 226.5,270.5 Z"/></g>
<g><path style="opacity:1" fill="#deba9d" d="M 318.5,229.5 C 319.641,232.64 319.808,235.973 319,239.5C 317.614,249.594 315.781,259.594 313.5,269.5C 309.6,270.43 305.6,270.763 301.5,270.5C 301.5,270.167 301.5,269.833 301.5,269.5C 301.833,269.5 302.167,269.5 302.5,269.5C 306.959,261.931 309.293,253.598 309.5,244.5C 310.922,241.574 312.922,239.074 315.5,237C 316.449,236.383 317.282,236.549 318,237.5C 318.497,234.854 318.664,232.187 318.5,229.5 Z"/></g>
<g><path style="opacity:1" fill="#f2d5bd" d="M 218.5,270.5 C 212.5,270.5 206.5,270.5 200.5,270.5C 200.949,265.054 203.949,262.388 209.5,262.5C 215.253,262.194 218.253,264.861 218.5,270.5 Z"/></g>
<g><path style="opacity:0.004" fill="#000000" d="M 89.5,268.5 C 90.8333,269.167 90.8333,269.167 89.5,268.5 Z"/></g>
<g><path style="opacity:1" fill="#dde0e1" d="M 105.5,269.5 C 117.42,270.479 129.42,270.812 141.5,270.5C 158.5,270.5 175.5,270.5 192.5,270.5C 195.167,270.5 197.833,270.5 200.5,270.5C 206.5,270.5 212.5,270.5 218.5,270.5C 221.167,270.5 223.833,270.5 226.5,270.5C 243.5,270.5 260.5,270.5 277.5,270.5C 281.5,270.5 285.5,270.5 289.5,270.5C 293.5,270.5 297.5,270.5 301.5,270.5C 305.6,270.763 309.6,270.43 313.5,269.5C 317.902,269.772 322.235,269.439 326.5,268.5C 327.696,268.846 327.696,269.346 326.5,270C 328.329,270.273 329.829,271.107 331,272.5C 331.333,272.167 331.667,271.833 332,271.5C 333.329,278.092 333.829,284.759 333.5,291.5C 332.515,287.366 332.182,283.032 332.5,278.5C 332.443,277.391 332.11,276.391 331.5,275.5C 330.48,273.648 328.98,272.315 327,271.5C 287.44,272.825 247.773,273.491 208,273.5C 168.459,273.497 128.959,273.164 89.5,272.5C 88.4822,273.193 87.4822,273.859 86.5,274.5C 87.1103,272.566 88.1103,270.899 89.5,269.5C 94.4152,268.888 99.7485,268.888 105.5,269.5 Z"/></g>
<g><path style="opacity:1" fill="#d1d3d6" d="M 331.5,275.5 C 249.665,275.167 167.998,275.501 86.5,276.5C 86.1667,276.5 85.8333,276.5 85.5,276.5C 85.3284,275.508 85.6618,274.842 86.5,274.5C 87.4822,273.859 88.4822,273.193 89.5,272.5C 128.959,273.164 168.459,273.497 208,273.5C 247.773,273.491 287.44,272.825 327,271.5C 328.98,272.315 330.48,273.648 331.5,275.5 Z"/></g>
<g><path style="opacity:0.004" fill="#000000" d="M 84.5,276.5 C 83.8333,275.167 83.8333,275.167 84.5,276.5 Z"/></g>
<g><path style="opacity:1" fill="#bdbfc4" d="M 86.5,276.5 C 167.998,275.501 249.665,275.167 331.5,275.5C 332.11,276.391 332.443,277.391 332.5,278.5C 331.12,277.294 329.953,277.627 329,279.5C 327.56,291.129 326.56,302.796 326,314.5C 325.78,317.516 324.613,320.016 322.5,322C 322.957,322.414 323.291,322.914 323.5,323.5C 321.641,323.112 319.641,323.112 317.5,323.5C 316.205,322.902 314.872,322.402 313.5,322C 314.654,321.086 314.487,320.253 313,319.5C 312.275,320.059 311.442,320.392 310.5,320.5C 309.214,320.148 308.381,319.482 308,318.5C 306.779,319.272 305.779,320.272 305,321.5C 303.667,320.833 302.667,319.833 302,318.5C 300.442,319.345 299.442,318.679 299,316.5C 298,317.833 297,317.833 296,316.5C 295.411,318.863 293.911,319.863 291.5,319.5C 291.785,317.712 291.452,316.045 290.5,314.5C 289.304,314.846 289.304,315.346 290.5,316C 289.451,316.492 288.451,316.326 287.5,315.5C 286.833,316.167 286.167,316.833 285.5,317.5C 284.936,315.982 283.769,314.316 282,312.5C 280.886,316.299 279.553,316.299 278,312.5C 277.086,316.185 276.419,315.852 276,311.5C 275.333,312.167 274.667,312.833 274,313.5C 271.723,309.453 270.056,309.786 269,314.5C 266.6,309.413 263.6,308.746 260,312.5C 259.869,308.608 258.369,307.775 255.5,310C 257.901,310.805 257.734,311.638 255,312.5C 253.354,310.945 253.021,309.279 254,307.5C 253.333,308.167 252.667,308.833 252,309.5C 251,308.5 250,307.5 249,306.5C 247.915,307.293 246.748,307.96 245.5,308.5C 244.796,306.899 243.629,305.565 242,304.5C 241.612,305.428 240.945,306.095 240,306.5C 239.454,305.711 238.787,304.711 238,303.5C 237.751,304.624 237.251,305.624 236.5,306.5C 235.169,305.408 234.336,304.074 234,302.5C 233.311,303.357 232.478,304.023 231.5,304.5C 230.28,303.289 229.113,303.289 228,304.5C 227.395,302.519 226.395,302.185 225,303.5C 222.843,300.922 221.677,300.922 221.5,303.5C 220.5,303 219.5,302.5 218.5,302C 219.696,301.346 219.696,300.846 218.5,300.5C 216.902,301.485 215.235,301.651 213.5,301C 214.5,300.667 215.5,300.333 216.5,300C 214.623,299.424 212.789,299.591 211,300.5C 208.929,299.179 206.929,298.179 205,297.5C 203.957,301.226 203.457,300.893 203.5,296.5C 201.856,296.714 200.356,296.38 199,295.5C 198.667,296.167 198.333,296.833 198,297.5C 195.551,297.063 193.217,297.063 191,297.5C 189.647,296.315 188.48,294.981 187.5,293.5C 186.037,293.632 184.537,293.965 183,294.5C 181.341,293.02 179.508,291.686 177.5,290.5C 174.43,292.623 171.43,292.29 168.5,289.5C 167.749,290.376 167.249,291.376 167,292.5C 166.365,288.898 165.032,288.232 163,290.5C 161.296,289.547 159.63,288.547 158,287.5C 155.576,289.161 153.742,288.661 152.5,286C 152.833,285.667 153.167,285.333 153.5,285C 149.973,284.118 149.307,284.618 151.5,286.5C 150.758,287.287 149.925,287.953 149,288.5C 148.667,286.833 148.333,285.167 148,283.5C 143.939,284.628 140.272,284.628 137,283.5C 136.193,287.449 135.693,287.449 135.5,283.5C 134.448,283.649 133.448,283.483 132.5,283C 133.833,282.333 135.167,281.667 136.5,281C 136,280.833 135.5,280.667 135,280.5C 133.85,281.424 132.85,281.424 132,280.5C 130.846,281.743 129.512,282.743 128,283.5C 126.667,283.5 125.333,283.5 124,283.5C 122.79,280.408 120.456,278.741 117,278.5C 113.971,278.816 110.971,279.15 108,279.5C 100.943,277.968 93.7765,276.968 86.5,276.5 Z"/></g>
<g><path style="opacity:1" fill="#b3b5ba" d="M 84.5,276.5 C 84.8333,276.5 85.1667,276.5 85.5,276.5C 85.8333,276.5 86.1667,276.5 86.5,276.5C 93.7765,276.968 100.943,277.968 108,279.5C 110.971,279.15 113.971,278.816 117,278.5C 120.456,278.741 122.79,280.408 124,283.5C 125.333,283.5 126.667,283.5 128,283.5C 129.512,282.743 130.846,281.743 132,280.5C 132.85,281.424 133.85,281.424 135,280.5C 135.5,280.667 136,280.833 136.5,281C 135.167,281.667 133.833,282.333 132.5,283C 133.448,283.483 134.448,283.649 135.5,283.5C 135.693,287.449 136.193,287.449 137,283.5C 140.272,284.628 143.939,284.628 148,283.5C 148.333,285.167 148.667,286.833 149,288.5C 149.925,287.953 150.758,287.287 151.5,286.5C 149.307,284.618 149.973,284.118 153.5,285C 153.167,285.333 152.833,285.667 152.5,286C 153.742,288.661 155.576,289.161 158,287.5C 159.63,288.547 161.296,289.547 163,290.5C 165.032,288.232 166.365,288.898 167,292.5C 167.249,291.376 167.749,290.376 168.5,289.5C 171.43,292.29 174.43,292.623 177.5,290.5C 179.508,291.686 181.341,293.02 183,294.5C 184.537,293.965 186.037,293.632 187.5,293.5C 188.48,294.981 189.647,296.315 191,297.5C 193.217,297.063 195.551,297.063 198,297.5C 198.333,296.833 198.667,296.167 199,295.5C 200.356,296.38 201.856,296.714 203.5,296.5C 203.457,300.893 203.957,301.226 205,297.5C 206.929,298.179 208.929,299.179 211,300.5C 212.789,299.591 214.623,299.424 216.5,300C 215.5,300.333 214.5,300.667 213.5,301C 215.235,301.651 216.902,301.485 218.5,300.5C 219.696,300.846 219.696,301.346 218.5,302C 219.5,302.5 220.5,303 221.5,303.5C 221.677,300.922 222.843,300.922 225,303.5C 226.395,302.185 227.395,302.519 228,304.5C 229.113,303.289 230.28,303.289 231.5,304.5C 232.478,304.023 233.311,303.357 234,302.5C 234.336,304.074 235.169,305.408 236.5,306.5C 237.251,305.624 237.751,304.624 238,303.5C 238.787,304.711 239.454,305.711 240,306.5C 240.945,306.095 241.612,305.428 242,304.5C 243.629,305.565 244.796,306.899 245.5,308.5C 246.748,307.96 247.915,307.293 249,306.5C 250,307.5 251,308.5 252,309.5C 252.667,308.833 253.333,308.167 254,307.5C 253.021,309.279 253.354,310.945 255,312.5C 257.734,311.638 257.901,310.805 255.5,310C 258.369,307.775 259.869,308.608 260,312.5C 263.6,308.746 266.6,309.413 269,314.5C 270.056,309.786 271.723,309.453 274,313.5C 274.667,312.833 275.333,312.167 276,311.5C 276.419,315.852 277.086,316.185 278,312.5C 279.553,316.299 280.886,316.299 282,312.5C 283.769,314.316 284.936,315.982 285.5,317.5C 286.167,316.833 286.833,316.167 287.5,315.5C 288.451,316.326 289.451,316.492 290.5,316C 289.304,315.346 289.304,314.846 290.5,314.5C 291.452,316.045 291.785,317.712 291.5,319.5C 293.911,319.863 295.411,318.863 296,316.5C 297,317.833 298,317.833 299,316.5C 299.442,318.679 300.442,319.345 302,318.5C 302.667,319.833 303.667,320.833 305,321.5C 305.779,320.272 306.779,319.272 308,318.5C 308.381,319.482 309.214,320.148 310.5,320.5C 311.442,320.392 312.275,320.059 313,319.5C 314.487,320.253 314.654,321.086 313.5,322C 314.872,322.402 316.205,322.902 317.5,323.5C 319.641,323.112 321.641,323.112 323.5,323.5C 323.291,322.914 322.957,322.414 322.5,322C 324.613,320.016 325.78,317.516 326,314.5C 326.56,302.796 327.56,291.129 329,279.5C 329.953,277.627 331.12,277.294 332.5,278.5C 332.182,283.032 332.515,287.366 333.5,291.5C 331.887,308.097 331.387,324.764 332,341.5C 331.825,336.981 331.325,332.647 330.5,328.5C 330.546,323.833 329.713,319.833 328,316.5C 327.17,321.808 326.67,327.141 326.5,332.5C 325.65,337.718 324.65,343.052 323.5,348.5C 321.854,350.055 321.521,351.721 322.5,353.5C 319.811,355.781 317.644,355.114 316,351.5C 314.846,352.743 313.512,353.743 312,354.5C 312.783,352.655 313.116,350.655 313,348.5C 312.683,350.301 312.016,350.634 311,349.5C 309.488,350.257 308.154,351.257 307,352.5C 305.253,348.162 302.919,347.496 300,350.5C 298.667,349.833 297.667,348.833 297,347.5C 296.667,347.833 296.333,348.167 296,348.5C 295.581,347.328 294.915,346.328 294,345.5C 291.756,347.994 289.423,347.994 287,345.5C 284.907,346.246 282.907,346.579 281,346.5C 280.085,345.672 279.419,344.672 279,343.5C 275.65,346.207 273.983,345.207 274,340.5C 273.612,341.428 272.945,342.095 272,342.5C 269.945,341.308 267.945,341.308 266,342.5C 263.916,339.967 261.916,339.967 260,342.5C 259.691,341.234 259.191,340.067 258.5,339C 255.549,338.904 252.882,338.071 250.5,336.5C 249.402,340.361 248.569,340.361 248,336.5C 247.085,337.328 246.419,338.328 246,339.5C 244.156,338.289 243.322,336.956 243.5,335.5C 242.346,337.856 241.013,338.023 239.5,336C 241.595,335.444 241.762,334.944 240,334.5C 233.369,335.551 227.702,335.551 223,334.5C 222.667,333.833 222.333,333.167 222,332.5C 220.16,333.833 219.66,333.666 220.5,332C 217.924,329.668 215.924,330.335 214.5,334C 212.975,335.009 211.308,335.509 209.5,335.5C 209.472,333.418 210.139,331.584 211.5,330C 210.464,328.383 209.297,328.216 208,329.5C 207.085,328.672 206.419,327.672 206,326.5C 205.581,327.672 204.915,328.672 204,329.5C 204.617,327.905 204.284,326.572 203,325.5C 202.5,326 202,326.5 201.5,327C 202.731,328.183 202.731,329.349 201.5,330.5C 200.796,328.929 199.463,327.262 197.5,325.5C 197.331,326.397 196.998,327.397 196.5,328.5C 195.147,327.315 193.98,325.981 193,324.5C 190.74,326.997 189.407,326.33 189,322.5C 186.942,326.092 185.275,326.092 184,322.5C 183,322.833 182,323.167 181,323.5C 180.309,321.109 179.309,321.109 178,323.5C 177.692,322.692 177.192,322.025 176.5,321.5C 174.5,321.833 172.5,322.167 170.5,322.5C 170.703,318.441 169.036,317.775 165.5,320.5C 164.522,320.023 163.689,319.357 163,318.5C 162.667,319.167 162.333,319.833 162,320.5C 159.266,317.707 158.266,318.041 159,321.5C 157.989,320.663 156.822,320.33 155.5,320.5C 155.587,317.402 155.087,317.068 154,319.5C 152.921,317.606 151.587,317.273 150,318.5C 149.71,316.956 149.044,315.623 148,314.5C 147,314.833 146,315.167 145,315.5C 143.384,314.455 141.717,313.455 140,312.5C 139.275,314.158 138.108,314.658 136.5,314C 137.956,313.577 138.456,312.744 138,311.5C 136.667,311.5 135.333,311.5 134,311.5C 132.266,313.451 130.099,314.451 127.5,314.5C 127.725,310.944 126.892,310.61 125,313.5C 122.755,312.863 120.588,312.03 118.5,311C 119.654,310.086 119.487,309.253 118,308.5C 117.667,309.167 117.333,309.833 117,310.5C 115.581,309.54 114.081,308.707 112.5,308C 112.943,306.482 112.276,305.315 110.5,304.5C 110.331,305.397 109.998,306.397 109.5,307.5C 108.312,306.16 106.812,305.493 105,305.5C 101.056,305.612 97.5556,305.612 94.5,305.5C 92.5896,303.089 91.2562,300.423 90.5,297.5C 89.8233,292.441 88.8233,287.441 87.5,282.5C 86.8324,285.306 86.1657,287.972 85.5,290.5C 84.8734,285.859 84.5401,281.193 84.5,276.5 Z"/></g>
<g><path style="opacity:0.004" fill="#000000" d="M 84.5,291.5 C 83.4017,290.399 83.235,289.066 84,287.5C 84.49,288.793 84.6567,290.127 84.5,291.5 Z"/></g>
<g><path style="opacity:0.004" fill="#000000" d="M 84.5,292.5 C 83.8333,293.167 83.8333,293.167 84.5,292.5 Z"/></g>
<g><path style="opacity:0.092" fill="#d2d2d2" d="M 86.5,310.5 C 87.492,317.982 87.8254,325.648 87.5,333.5C 86.7572,327.319 86.0906,320.985 85.5,314.5C 85.8457,313.151 86.179,311.817 86.5,310.5 Z"/></g>
<g><path style="opacity:1" fill="#989a9f" d="M 92.5,332.5 C 92.8159,337.844 93.3159,343.178 94,348.5C 94.7724,349.849 95.9391,350.682 97.5,351C 94.9485,352.516 95.2819,353.349 98.5,353.5C 99.8132,349.694 100.98,350.027 102,354.5C 102.667,353.833 103.333,353.167 104,352.5C 103.021,354.279 103.354,355.945 105,357.5C 105.19,352.363 106.524,351.697 109,355.5C 109.333,354.833 109.667,354.167 110,353.5C 110.333,354.833 110.667,356.167 111,357.5C 111.333,356.833 111.667,356.167 112,355.5C 112.667,356.833 113.333,358.167 114,359.5C 114.551,356.443 116.217,356.11 119,358.5C 120.16,356.203 121.16,356.536 122,359.5C 122.953,357.408 124.286,357.075 126,358.5C 126.333,357.833 126.667,357.167 127,356.5C 127.741,360.185 129.241,360.851 131.5,358.5C 131.833,359.167 132.167,359.833 132.5,360.5C 133.306,357.638 134.639,357.138 136.5,359C 134.842,359.725 134.342,360.892 135,362.5C 136.019,361.313 137.186,360.313 138.5,359.5C 138.5,360.5 138.5,361.5 138.5,362.5C 139.086,362.291 139.586,361.957 140,361.5C 141.784,364.003 143.451,364.003 145,361.5C 145.915,362.328 146.581,363.328 147,364.5C 147.725,362.842 148.892,362.342 150.5,363C 149.216,364.297 149.383,365.464 151,366.5C 152.487,365.747 152.654,364.914 151.5,364C 153.075,364.379 154.575,364.212 156,363.5C 157.333,364.167 158.333,365.167 159,366.5C 159.875,364.487 161.209,364.487 163,366.5C 163.333,366.167 163.667,365.833 164,365.5C 166.333,367.167 168.667,368.833 171,370.5C 171.413,365.087 172.58,364.587 174.5,369C 176.96,369.981 179.46,370.815 182,371.5C 183.326,371.245 184.326,370.578 185,369.5C 185.667,370.833 186.333,370.833 187,369.5C 187.333,370.5 187.667,371.5 188,372.5C 189.865,370.145 192.031,369.978 194.5,372C 192.833,372.333 191.167,372.667 189.5,373C 190.5,373.5 191.5,374 192.5,374.5C 193.425,373.359 194.259,373.359 195,374.5C 195.368,373.09 196.201,372.09 197.5,371.5C 200.143,372.976 202.31,374.976 204,377.5C 204,376.167 204,374.833 204,373.5C 204.333,373.833 204.667,374.167 205,374.5C 205.71,373.027 206.876,372.36 208.5,372.5C 208.773,374.451 208.107,375.951 206.5,377C 208.135,377.54 209.468,377.04 210.5,375.5C 211.192,376.025 211.692,376.692 212,377.5C 214.17,378.006 216.504,378.006 219,377.5C 221.35,378.504 223.684,379.504 226,380.5C 226.333,379.833 226.667,379.167 227,378.5C 228.491,380.004 230.324,380.837 232.5,381C 231.304,381.654 231.304,382.154 232.5,382.5C 234.747,380.491 236.58,381.158 238,384.5C 240.075,382.352 242.408,382.018 245,383.5C 246.676,382.939 248.009,381.939 249,380.5C 250.621,382.493 252.287,384.493 254,386.5C 255.857,382.62 257.19,382.954 258,387.5C 259.333,386.833 260.333,385.833 261,384.5C 262.067,385.191 263.234,385.691 264.5,386C 263.552,386.483 262.552,386.649 261.5,386.5C 261.67,387.822 261.337,388.989 260.5,390C 261.448,390.483 262.448,390.649 263.5,390.5C 263.5,389.5 263.5,388.5 263.5,387.5C 268.821,386.979 273.821,387.979 278.5,390.5C 279.192,389.975 279.692,389.308 280,388.5C 280.583,390.002 281.416,391.335 282.5,392.5C 282.833,391.833 283.167,391.167 283.5,390.5C 285.638,391.429 286.804,393.096 287,395.5C 289.667,392.833 292.333,392.833 295,395.5C 295.725,393.842 296.892,393.342 298.5,394C 295.736,395.544 295.903,396.711 299,397.5C 299.098,395.381 299.931,393.714 301.5,392.5C 302.251,393.376 302.751,394.376 303,395.5C 305.855,392.476 307.855,393.476 309,398.5C 309.551,395.443 311.217,395.11 314,397.5C 316.399,397.028 318.399,398.028 320,400.5C 319.577,398.124 320.411,395.957 322.5,394C 322.167,393.667 321.833,393.333 321.5,393C 323.439,384.824 324.772,376.658 325.5,368.5C 325.833,368.5 326.167,368.5 326.5,368.5C 325.549,380.579 324.049,392.579 322,404.5C 321.402,407.308 320.235,409.808 318.5,412C 310.281,412.424 302.115,412.591 294,412.5C 288.29,412.235 282.79,411.235 277.5,409.5C 274.96,411.139 272.793,410.806 271,408.5C 269.981,409.687 268.814,410.687 267.5,411.5C 266.808,410.975 266.308,410.308 266,409.5C 262.349,410.452 259.183,409.452 256.5,406.5C 253.996,406.43 251.663,406.763 249.5,407.5C 247.434,403.494 245.934,403.827 245,408.5C 244.405,404.918 243.071,404.584 241,407.5C 240.383,406.551 240.549,405.718 241.5,405C 240.299,404.097 239.465,402.931 239,401.5C 237.667,402.167 236.667,403.167 236,404.5C 233.944,399.235 231.944,399.235 230,404.5C 227.715,401.703 225.215,401.37 222.5,403.5C 221.692,403.192 221.025,402.692 220.5,402C 221.731,400.817 221.731,399.651 220.5,398.5C 218.644,399.276 217.311,400.609 216.5,402.5C 215.877,400.034 215.043,397.701 214,395.5C 212.086,396.676 212.252,397.676 214.5,398.5C 212.981,401.064 211.481,401.064 210,398.5C 208.413,399.727 207.079,399.394 206,397.5C 204.951,398.517 203.784,398.684 202.5,398C 202.36,396.736 202.36,395.569 202.5,394.5C 201.575,395.641 200.741,395.641 200,394.5C 199.692,395.308 199.192,395.975 198.5,396.5C 197.264,395.754 195.93,395.421 194.5,395.5C 194.649,396.552 194.483,397.552 194,398.5C 192.895,393.372 191.562,393.372 190,398.5C 188.333,395.833 186.667,393.167 185,390.5C 184.751,391.624 184.251,392.624 183.5,393.5C 182.304,393.154 182.304,392.654 183.5,392C 180.512,390.48 177.512,390.314 174.5,391.5C 174.5,390.5 174.5,389.5 174.5,388.5C 172.007,388.329 170.174,389.329 169,391.5C 167.354,389.945 167.021,388.279 168,386.5C 166.488,388.957 165.154,388.957 164,386.5C 162.812,387.563 162.312,388.897 162.5,390.5C 159.95,390.439 158.45,389.106 158,386.5C 157.632,387.91 156.799,388.91 155.5,389.5C 155.06,388.302 154.727,387.135 154.5,386C 152.521,385.316 150.854,385.816 149.5,387.5C 148.107,386.137 146.441,385.304 144.5,385C 145.451,384.282 145.617,383.449 145,382.5C 144.333,383.833 143.667,383.833 143,382.5C 142.383,383.449 142.549,384.282 143.5,385C 141.209,385.015 139.042,385.182 137,385.5C 135,383.5 133,381.5 131,379.5C 129.84,381.797 128.84,381.464 128,378.5C 127.667,379.5 127.333,380.5 127,381.5C 126.632,380.09 125.799,379.09 124.5,378.5C 121.973,380.471 119.307,381.137 116.5,380.5C 117.736,379.643 119.069,378.977 120.5,378.5C 121.521,377.998 121.688,377.332 121,376.5C 118.076,376.626 115.409,377.959 113,380.5C 112.667,378.833 112.333,377.167 112,375.5C 111.71,377.044 111.044,378.377 110,379.5C 109,378.167 108,378.167 107,379.5C 105.68,377.183 104.014,375.183 102,373.5C 100.415,374.376 99.4152,375.709 99,377.5C 98.6824,375.939 97.8491,374.772 96.5,374C 97.3567,373.311 98.0233,372.478 98.5,371.5C 97.2815,371.891 96.4482,371.224 96,369.5C 94.3719,361.381 92.8719,353.381 91.5,345.5C 91.8186,343.25 91.3186,341.25 90,339.5C 89.6667,340.833 89.3333,342.167 89,343.5C 88.1685,335.812 88.3352,328.145 89.5,320.5C 90.3213,324.673 91.3213,328.673 92.5,332.5 Z"/></g>
<g><path style="opacity:1" fill="#a5a7ac" d="M 90.5,297.5 C 90.5702,304.256 91.4035,310.923 93,317.5C 94.1475,316.542 95.1475,316.875 96,318.5C 96.0492,323.325 97.7159,323.659 101,319.5C 103.803,321.094 106.636,322.761 109.5,324.5C 111.163,322.199 112.997,322.199 115,324.5C 116.398,323.949 117.732,323.616 119,323.5C 119.667,327.5 120.333,327.5 121,323.5C 124.973,325.474 128.64,327.808 132,330.5C 132.945,330.095 133.612,329.428 134,328.5C 135.333,329.833 136.667,329.833 138,328.5C 140.26,329.673 142.426,331.006 144.5,332.5C 146.51,331.651 148.177,332.318 149.5,334.5C 149.92,330.578 151.42,330.578 154,334.5C 157.29,334.574 160.457,334.24 163.5,333.5C 164.281,334.729 164.781,336.062 165,337.5C 166.594,334.191 168.594,334.191 171,337.5C 171.333,336.833 171.667,336.167 172,335.5C 174,336.167 175.333,337.5 176,339.5C 176.308,338.692 176.808,338.025 177.5,337.5C 178.528,339.361 180.028,340.695 182,341.5C 182.617,340.551 182.451,339.718 181.5,339C 183.199,338.607 184.699,339.107 186,340.5C 186.772,340.355 187.439,340.022 188,339.5C 188.583,341.002 189.416,342.335 190.5,343.5C 191.386,342.675 191.719,341.675 191.5,340.5C 192.959,340.433 194.292,340.766 195.5,341.5C 194.133,346.27 194.466,350.937 196.5,355.5C 195.21,356.058 194.377,357.058 194,358.5C 193.026,356.122 192.359,356.456 192,359.5C 191.626,358.584 191.126,357.75 190.5,357C 187.321,356.447 184.487,355.281 182,353.5C 181.374,355.991 180.541,355.991 179.5,353.5C 177.262,356.433 176.262,356.099 176.5,352.5C 177.552,352.649 178.552,352.483 179.5,352C 177.623,351.424 175.789,351.591 174,352.5C 173.055,352.095 172.388,351.428 172,350.5C 171,351.833 170,351.833 169,350.5C 168.085,351.328 167.419,352.328 167,353.5C 165.902,352.033 164.402,351.199 162.5,351C 161.809,349.933 161.309,348.766 161,347.5C 160.033,348.678 159.533,350.011 159.5,351.5C 156.749,349.067 153.249,347.067 149,345.5C 145.658,347.039 142.658,346.373 140,343.5C 139.385,345.116 138.385,346.449 137,347.5C 137.617,345.905 137.284,344.572 136,343.5C 132.199,344.399 128.865,343.399 126,340.5C 125.667,341.167 125.333,341.833 125,342.5C 123.184,340.559 121.184,339.892 119,340.5C 118.667,341.167 118.333,341.833 118,342.5C 117.333,341.167 116.667,339.833 116,338.5C 114.075,342.169 112.408,342.169 111,338.5C 109.414,339.376 107.914,340.376 106.5,341.5C 106.331,340.603 105.998,339.603 105.5,338.5C 103.53,339.443 102.03,338.776 101,336.5C 100.085,337.328 99.4186,338.328 99,339.5C 98.7811,338.062 98.2811,336.729 97.5,335.5C 95.4908,334.935 93.8241,333.935 92.5,332.5C 91.3213,328.673 90.3213,324.673 89.5,320.5C 88.3352,328.145 88.1685,335.812 89,343.5C 89.3333,342.167 89.6667,340.833 90,339.5C 91.3186,341.25 91.8186,343.25 91.5,345.5C 89.9363,350.728 88.9363,356.061 88.5,361.5C 88.8479,354.52 88.1812,347.687 86.5,341C 87.435,338.619 87.7683,336.119 87.5,333.5C 87.8254,325.648 87.492,317.982 86.5,310.5C 85.8333,304.5 85.1667,298.5 84.5,292.5C 84.5,292.167 84.5,291.833 84.5,291.5C 85.1667,291.5 85.5,291.167 85.5,290.5C 86.1657,287.972 86.8324,285.306 87.5,282.5C 88.8233,287.441 89.8233,292.441 90.5,297.5 Z"/></g>
<g><path style="opacity:0.004" fill="#000000" d="M 332.5,324.5 C 333.833,325.167 333.833,325.167 332.5,324.5 Z"/></g>
<g><path style="opacity:1" fill="#9fa1a6" d="M 92.5,332.5 C 93.8241,333.935 95.4908,334.935 97.5,335.5C 98.2811,336.729 98.7811,338.062 99,339.5C 99.4186,338.328 100.085,337.328 101,336.5C 102.03,338.776 103.53,339.443 105.5,338.5C 105.998,339.603 106.331,340.603 106.5,341.5C 107.914,340.376 109.414,339.376 111,338.5C 112.408,342.169 114.075,342.169 116,338.5C 116.667,339.833 117.333,341.167 118,342.5C 118.333,341.833 118.667,341.167 119,340.5C 121.184,339.892 123.184,340.559 125,342.5C 125.333,341.833 125.667,341.167 126,340.5C 128.865,343.399 132.199,344.399 136,343.5C 137.284,344.572 137.617,345.905 137,347.5C 138.385,346.449 139.385,345.116 140,343.5C 142.658,346.373 145.658,347.039 149,345.5C 153.249,347.067 156.749,349.067 159.5,351.5C 159.533,350.011 160.033,348.678 161,347.5C 161.309,348.766 161.809,349.933 162.5,351C 164.402,351.199 165.902,352.033 167,353.5C 167.419,352.328 168.085,351.328 169,350.5C 170,351.833 171,351.833 172,350.5C 172.388,351.428 173.055,352.095 174,352.5C 175.789,351.591 177.623,351.424 179.5,352C 178.552,352.483 177.552,352.649 176.5,352.5C 176.262,356.099 177.262,356.433 179.5,353.5C 180.541,355.991 181.374,355.991 182,353.5C 184.487,355.281 187.321,356.447 190.5,357C 191.126,357.75 191.626,358.584 192,359.5C 192.359,356.456 193.026,356.122 194,358.5C 194.377,357.058 195.21,356.058 196.5,355.5C 197.906,358.414 199.906,360.914 202.5,363C 204.847,363.334 207.181,363.167 209.5,362.5C 208.527,364.068 208.36,365.735 209,367.5C 209.667,366.833 210.333,366.167 211,365.5C 212.434,367.136 214.267,368.136 216.5,368.5C 217.906,367.332 219.072,367.665 220,369.5C 220.691,367.109 221.691,367.109 223,369.5C 224.458,368.253 225.958,368.253 227.5,369.5C 229.167,368 230.833,366.5 232.5,365C 233.825,365.148 234.992,364.982 236,364.5C 236.324,366.569 237.158,366.902 238.5,365.5C 240.545,367.047 242.711,368.381 245,369.5C 245.945,369.095 246.612,368.428 247,367.5C 247.667,370.167 248.333,370.167 249,367.5C 249.615,369.116 250.615,370.449 252,371.5C 253.137,370.636 254.47,369.636 256,368.5C 256.419,369.672 257.085,370.672 258,371.5C 259.583,371.507 261.249,371.174 263,370.5C 264.614,373.825 266.614,374.158 269,371.5C 270.399,372.227 271.899,372.727 273.5,373C 272.549,373.718 272.383,374.551 273,375.5C 275.784,375.049 278.617,375.049 281.5,375.5C 283.044,375.21 284.377,374.544 285.5,373.5C 286.85,375.735 288.35,377.068 290,377.5C 290.915,376.672 291.581,375.672 292,374.5C 292.833,376 294,377.167 295.5,378C 296.449,378.617 297.282,378.451 298,377.5C 298.667,378.833 299.333,380.167 300,381.5C 300.308,380.692 300.808,380.025 301.5,379.5C 305.55,380.483 308.716,381.816 311,383.5C 314.418,383.295 317.918,382.962 321.5,382.5C 322.626,375.744 323.793,368.744 325,361.5C 325.497,363.81 325.663,366.143 325.5,368.5C 324.772,376.658 323.439,384.824 321.5,393C 321.833,393.333 322.167,393.667 322.5,394C 320.411,395.957 319.577,398.124 320,400.5C 318.399,398.028 316.399,397.028 314,397.5C 311.217,395.11 309.551,395.443 309,398.5C 307.855,393.476 305.855,392.476 303,395.5C 302.751,394.376 302.251,393.376 301.5,392.5C 299.931,393.714 299.098,395.381 299,397.5C 295.903,396.711 295.736,395.544 298.5,394C 296.892,393.342 295.725,393.842 295,395.5C 292.333,392.833 289.667,392.833 287,395.5C 286.804,393.096 285.638,391.429 283.5,390.5C 283.167,391.167 282.833,391.833 282.5,392.5C 281.416,391.335 280.583,390.002 280,388.5C 279.692,389.308 279.192,389.975 278.5,390.5C 273.821,387.979 268.821,386.979 263.5,387.5C 263.5,388.5 263.5,389.5 263.5,390.5C 262.448,390.649 261.448,390.483 260.5,390C 261.337,388.989 261.67,387.822 261.5,386.5C 262.552,386.649 263.552,386.483 264.5,386C 263.234,385.691 262.067,385.191 261,384.5C 260.333,385.833 259.333,386.833 258,387.5C 257.19,382.954 255.857,382.62 254,386.5C 252.287,384.493 250.621,382.493 249,380.5C 248.009,381.939 246.676,382.939 245,383.5C 242.408,382.018 240.075,382.352 238,384.5C 236.58,381.158 234.747,380.491 232.5,382.5C 231.304,382.154 231.304,381.654 232.5,381C 230.324,380.837 228.491,380.004 227,378.5C 226.667,379.167 226.333,379.833 226,380.5C 223.684,379.504 221.35,378.504 219,377.5C 216.504,378.006 214.17,378.006 212,377.5C 211.692,376.692 211.192,376.025 210.5,375.5C 209.468,377.04 208.135,377.54 206.5,377C 208.107,375.951 208.773,374.451 208.5,372.5C 206.876,372.36 205.71,373.027 205,374.5C 204.667,374.167 204.333,373.833 204,373.5C 204,374.833 204,376.167 204,377.5C 202.31,374.976 200.143,372.976 197.5,371.5C 196.201,372.09 195.368,373.09 195,374.5C 194.259,373.359 193.425,373.359 192.5,374.5C 191.5,374 190.5,373.5 189.5,373C 191.167,372.667 192.833,372.333 194.5,372C 192.031,369.978 189.865,370.145 188,372.5C 187.667,371.5 187.333,370.5 187,369.5C 186.333,370.833 185.667,370.833 185,369.5C 184.326,370.578 183.326,371.245 182,371.5C 179.46,370.815 176.96,369.981 174.5,369C 172.58,364.587 171.413,365.087 171,370.5C 168.667,368.833 166.333,367.167 164,365.5C 163.667,365.833 163.333,366.167 163,366.5C 161.209,364.487 159.875,364.487 159,366.5C 158.333,365.167 157.333,364.167 156,363.5C 154.575,364.212 153.075,364.379 151.5,364C 152.654,364.914 152.487,365.747 151,366.5C 149.383,365.464 149.216,364.297 150.5,363C 148.892,362.342 147.725,362.842 147,364.5C 146.581,363.328 145.915,362.328 145,361.5C 143.451,364.003 141.784,364.003 140,361.5C 139.586,361.957 139.086,362.291 138.5,362.5C 138.5,361.5 138.5,360.5 138.5,359.5C 137.186,360.313 136.019,361.313 135,362.5C 134.342,360.892 134.842,359.725 136.5,359C 134.639,357.138 133.306,357.638 132.5,360.5C 132.167,359.833 131.833,359.167 131.5,358.5C 129.241,360.851 127.741,360.185 127,356.5C 126.667,357.167 126.333,357.833 126,358.5C 124.286,357.075 122.953,357.408 122,359.5C 121.16,356.536 120.16,356.203 119,358.5C 116.217,356.11 114.551,356.443 114,359.5C 113.333,358.167 112.667,356.833 112,355.5C 111.667,356.167 111.333,356.833 111,357.5C 110.667,356.167 110.333,354.833 110,353.5C 109.667,354.167 109.333,354.833 109,355.5C 106.524,351.697 105.19,352.363 105,357.5C 103.354,355.945 103.021,354.279 104,352.5C 103.333,353.167 102.667,353.833 102,354.5C 100.98,350.027 99.8132,349.694 98.5,353.5C 95.2819,353.349 94.9485,352.516 97.5,351C 95.9391,350.682 94.7724,349.849 94,348.5C 93.3159,343.178 92.8159,337.844 92.5,332.5 Z"/></g>
<g><path style="opacity:1" fill="#abadb2" d="M 90.5,297.5 C 91.2562,300.423 92.5896,303.089 94.5,305.5C 97.5556,305.612 101.056,305.612 105,305.5C 106.812,305.493 108.312,306.16 109.5,307.5C 109.998,306.397 110.331,305.397 110.5,304.5C 112.276,305.315 112.943,306.482 112.5,308C 114.081,308.707 115.581,309.54 117,310.5C 117.333,309.833 117.667,309.167 118,308.5C 119.487,309.253 119.654,310.086 118.5,311C 120.588,312.03 122.755,312.863 125,313.5C 126.892,310.61 127.725,310.944 127.5,314.5C 130.099,314.451 132.266,313.451 134,311.5C 135.333,311.5 136.667,311.5 138,311.5C 138.456,312.744 137.956,313.577 136.5,314C 138.108,314.658 139.275,314.158 140,312.5C 141.717,313.455 143.384,314.455 145,315.5C 146,315.167 147,314.833 148,314.5C 149.044,315.623 149.71,316.956 150,318.5C 151.587,317.273 152.921,317.606 154,319.5C 155.087,317.068 155.587,317.402 155.5,320.5C 156.822,320.33 157.989,320.663 159,321.5C 158.266,318.041 159.266,317.707 162,320.5C 162.333,319.833 162.667,319.167 163,318.5C 163.689,319.357 164.522,320.023 165.5,320.5C 169.036,317.775 170.703,318.441 170.5,322.5C 172.5,322.167 174.5,321.833 176.5,321.5C 177.192,322.025 177.692,322.692 178,323.5C 179.309,321.109 180.309,321.109 181,323.5C 182,323.167 183,322.833 184,322.5C 185.275,326.092 186.942,326.092 189,322.5C 189.407,326.33 190.74,326.997 193,324.5C 193.98,325.981 195.147,327.315 196.5,328.5C 196.998,327.397 197.331,326.397 197.5,325.5C 199.463,327.262 200.796,328.929 201.5,330.5C 202.731,329.349 202.731,328.183 201.5,327C 202,326.5 202.5,326 203,325.5C 204.284,326.572 204.617,327.905 204,329.5C 204.915,328.672 205.581,327.672 206,326.5C 206.419,327.672 207.085,328.672 208,329.5C 209.297,328.216 210.464,328.383 211.5,330C 210.139,331.584 209.472,333.418 209.5,335.5C 211.308,335.509 212.975,335.009 214.5,334C 215.924,330.335 217.924,329.668 220.5,332C 219.66,333.666 220.16,333.833 222,332.5C 222.333,333.167 222.667,333.833 223,334.5C 227.702,335.551 233.369,335.551 240,334.5C 241.762,334.944 241.595,335.444 239.5,336C 241.013,338.023 242.346,337.856 243.5,335.5C 243.322,336.956 244.156,338.289 246,339.5C 246.419,338.328 247.085,337.328 248,336.5C 248.569,340.361 249.402,340.361 250.5,336.5C 252.882,338.071 255.549,338.904 258.5,339C 259.191,340.067 259.691,341.234 260,342.5C 261.916,339.967 263.916,339.967 266,342.5C 267.945,341.308 269.945,341.308 272,342.5C 272.945,342.095 273.612,341.428 274,340.5C 273.983,345.207 275.65,346.207 279,343.5C 279.419,344.672 280.085,345.672 281,346.5C 282.907,346.579 284.907,346.246 287,345.5C 289.423,347.994 291.756,347.994 294,345.5C 294.915,346.328 295.581,347.328 296,348.5C 296.333,348.167 296.667,347.833 297,347.5C 297.667,348.833 298.667,349.833 300,350.5C 302.919,347.496 305.253,348.162 307,352.5C 308.154,351.257 309.488,350.257 311,349.5C 312.016,350.634 312.683,350.301 313,348.5C 313.116,350.655 312.783,352.655 312,354.5C 313.512,353.743 314.846,352.743 316,351.5C 317.644,355.114 319.811,355.781 322.5,353.5C 321.521,351.721 321.854,350.055 323.5,348.5C 324.65,343.052 325.65,337.718 326.5,332.5C 326.449,345.677 324.949,358.677 322,371.5C 320.615,372.551 319.615,373.884 319,375.5C 317.559,374.13 315.892,373.13 314,372.5C 313.667,373.167 313.333,373.833 313,374.5C 310.688,373.186 308.688,371.519 307,369.5C 305.667,370.833 304.333,370.833 303,369.5C 302.05,370.022 301.216,370.689 300.5,371.5C 300.704,370.471 300.204,369.471 299,368.5C 298.667,368.833 298.333,369.167 298,369.5C 297.311,368.643 296.478,367.977 295.5,367.5C 294.5,368.833 293.5,368.833 292.5,367.5C 291.808,368.025 291.308,368.692 291,369.5C 290.626,368.584 290.126,367.75 289.5,367C 285.333,366.128 281.333,364.961 277.5,363.5C 277.725,359.944 276.892,359.61 275,362.5C 274.055,362.095 273.388,361.428 273,360.5C 272.779,363.943 271.779,364.276 270,361.5C 269.762,366.39 269.095,366.39 268,361.5C 267.667,362.167 267.333,362.833 267,363.5C 265.796,362.529 265.296,361.529 265.5,360.5C 264.554,360.987 263.554,361.32 262.5,361.5C 257.093,360.378 251.76,359.045 246.5,357.5C 243.97,360.21 242.47,359.543 242,355.5C 240.434,354.939 239.101,355.606 238,357.5C 237.692,356.692 237.192,356.025 236.5,355.5C 234.833,355.5 233.167,355.5 231.5,355.5C 230.304,355.154 230.304,354.654 231.5,354C 228.096,351.538 225.43,352.038 223.5,355.5C 221.378,352.916 220.044,349.916 219.5,346.5C 219.679,343.809 220.679,341.475 222.5,339.5C 220.941,337.305 218.774,336.305 216,336.5C 211.829,337.779 207.662,337.779 203.5,336.5C 199.807,336.672 197.141,338.339 195.5,341.5C 194.292,340.766 192.959,340.433 191.5,340.5C 191.719,341.675 191.386,342.675 190.5,343.5C 189.416,342.335 188.583,341.002 188,339.5C 187.439,340.022 186.772,340.355 186,340.5C 184.699,339.107 183.199,338.607 181.5,339C 182.451,339.718 182.617,340.551 182,341.5C 180.028,340.695 178.528,339.361 177.5,337.5C 176.808,338.025 176.308,338.692 176,339.5C 175.333,337.5 174,336.167 172,335.5C 171.667,336.167 171.333,336.833 171,337.5C 168.594,334.191 166.594,334.191 165,337.5C 164.781,336.062 164.281,334.729 163.5,333.5C 160.457,334.24 157.29,334.574 154,334.5C 151.42,330.578 149.92,330.578 149.5,334.5C 148.177,332.318 146.51,331.651 144.5,332.5C 142.426,331.006 140.26,329.673 138,328.5C 136.667,329.833 135.333,329.833 134,328.5C 133.612,329.428 132.945,330.095 132,330.5C 128.64,327.808 124.973,325.474 121,323.5C 120.333,327.5 119.667,327.5 119,323.5C 117.732,323.616 116.398,323.949 115,324.5C 112.997,322.199 111.163,322.199 109.5,324.5C 106.636,322.761 103.803,321.094 101,319.5C 97.7159,323.659 96.0492,323.325 96,318.5C 95.1475,316.875 94.1475,316.542 93,317.5C 91.4035,310.923 90.5702,304.256 90.5,297.5 Z"/></g>
<g><path style="opacity:1" fill="#c7c9ce" d="M 223.5,355.5 C 221.256,362.622 216.589,364.955 209.5,362.5C 207.181,363.167 204.847,363.334 202.5,363C 199.906,360.914 197.906,358.414 196.5,355.5C 194.466,350.937 194.133,346.27 195.5,341.5C 197.141,338.339 199.807,336.672 203.5,336.5C 207.662,337.779 211.829,337.779 216,336.5C 218.774,336.305 220.941,337.305 222.5,339.5C 220.679,341.475 219.679,343.809 219.5,346.5C 220.044,349.916 221.378,352.916 223.5,355.5 Z"/></g>
<g><path style="opacity:1" fill="#a6a7ab" d="M 330.5,328.5 C 330.409,340.518 330.242,352.518 330,364.5C 337.543,382.297 343.377,400.63 347.5,419.5C 344.833,419.5 342.167,419.5 339.5,419.5C 337.325,407.139 333.825,395.139 329,383.5C 328.722,384.416 328.222,385.082 327.5,385.5C 327.875,377.766 327.542,372.099 326.5,368.5C 326.167,368.5 325.833,368.5 325.5,368.5C 325.663,366.143 325.497,363.81 325,361.5C 323.793,368.744 322.626,375.744 321.5,382.5C 317.918,382.962 314.418,383.295 311,383.5C 308.716,381.816 305.55,380.483 301.5,379.5C 300.808,380.025 300.308,380.692 300,381.5C 299.333,380.167 298.667,378.833 298,377.5C 297.282,378.451 296.449,378.617 295.5,378C 294,377.167 292.833,376 292,374.5C 291.581,375.672 290.915,376.672 290,377.5C 288.35,377.068 286.85,375.735 285.5,373.5C 284.377,374.544 283.044,375.21 281.5,375.5C 278.617,375.049 275.784,375.049 273,375.5C 272.383,374.551 272.549,373.718 273.5,373C 271.899,372.727 270.399,372.227 269,371.5C 266.614,374.158 264.614,373.825 263,370.5C 261.249,371.174 259.583,371.507 258,371.5C 257.085,370.672 256.419,369.672 256,368.5C 254.47,369.636 253.137,370.636 252,371.5C 250.615,370.449 249.615,369.116 249,367.5C 248.333,370.167 247.667,370.167 247,367.5C 246.612,368.428 245.945,369.095 245,369.5C 242.711,368.381 240.545,367.047 238.5,365.5C 237.158,366.902 236.324,366.569 236,364.5C 234.992,364.982 233.825,365.148 232.5,365C 230.833,366.5 229.167,368 227.5,369.5C 225.958,368.253 224.458,368.253 223,369.5C 221.691,367.109 220.691,367.109 220,369.5C 219.072,367.665 217.906,367.332 216.5,368.5C 214.267,368.136 212.434,367.136 211,365.5C 210.333,366.167 209.667,366.833 209,367.5C 208.36,365.735 208.527,364.068 209.5,362.5C 216.589,364.955 221.256,362.622 223.5,355.5C 225.43,352.038 228.096,351.538 231.5,354C 230.304,354.654 230.304,355.154 231.5,355.5C 233.167,355.5 234.833,355.5 236.5,355.5C 237.192,356.025 237.692,356.692 238,357.5C 239.101,355.606 240.434,354.939 242,355.5C 242.47,359.543 243.97,360.21 246.5,357.5C 251.76,359.045 257.093,360.378 262.5,361.5C 263.554,361.32 264.554,360.987 265.5,360.5C 265.296,361.529 265.796,362.529 267,363.5C 267.333,362.833 267.667,362.167 268,361.5C 269.095,366.39 269.762,366.39 270,361.5C 271.779,364.276 272.779,363.943 273,360.5C 273.388,361.428 274.055,362.095 275,362.5C 276.892,359.61 277.725,359.944 277.5,363.5C 281.333,364.961 285.333,366.128 289.5,367C 290.126,367.75 290.626,368.584 291,369.5C 291.308,368.692 291.808,368.025 292.5,367.5C 293.5,368.833 294.5,368.833 295.5,367.5C 296.478,367.977 297.311,368.643 298,369.5C 298.333,369.167 298.667,368.833 299,368.5C 300.204,369.471 300.704,370.471 300.5,371.5C 301.216,370.689 302.05,370.022 303,369.5C 304.333,370.833 305.667,370.833 307,369.5C 308.688,371.519 310.688,373.186 313,374.5C 313.333,373.833 313.667,373.167 314,372.5C 315.892,373.13 317.559,374.13 319,375.5C 319.615,373.884 320.615,372.551 322,371.5C 324.949,358.677 326.449,345.677 326.5,332.5C 326.67,327.141 327.17,321.808 328,316.5C 329.713,319.833 330.546,323.833 330.5,328.5 Z"/></g>
<g><path style="opacity:1" fill="#929398" d="M 91.5,345.5 C 92.8719,353.381 94.3719,361.381 96,369.5C 96.4482,371.224 97.2815,371.891 98.5,371.5C 98.0233,372.478 97.3567,373.311 96.5,374C 97.8491,374.772 98.6824,375.939 99,377.5C 99.4152,375.709 100.415,374.376 102,373.5C 104.014,375.183 105.68,377.183 107,379.5C 108,378.167 109,378.167 110,379.5C 111.044,378.377 111.71,377.044 112,375.5C 112.333,377.167 112.667,378.833 113,380.5C 115.409,377.959 118.076,376.626 121,376.5C 121.688,377.332 121.521,377.998 120.5,378.5C 119.069,378.977 117.736,379.643 116.5,380.5C 119.307,381.137 121.973,380.471 124.5,378.5C 125.799,379.09 126.632,380.09 127,381.5C 127.333,380.5 127.667,379.5 128,378.5C 128.84,381.464 129.84,381.797 131,379.5C 133,381.5 135,383.5 137,385.5C 139.042,385.182 141.209,385.015 143.5,385C 142.549,384.282 142.383,383.449 143,382.5C 143.667,383.833 144.333,383.833 145,382.5C 145.617,383.449 145.451,384.282 144.5,385C 146.441,385.304 148.107,386.137 149.5,387.5C 150.854,385.816 152.521,385.316 154.5,386C 154.727,387.135 155.06,388.302 155.5,389.5C 156.799,388.91 157.632,387.91 158,386.5C 158.45,389.106 159.95,390.439 162.5,390.5C 162.312,388.897 162.812,387.563 164,386.5C 165.154,388.957 166.488,388.957 168,386.5C 167.021,388.279 167.354,389.945 169,391.5C 170.174,389.329 172.007,388.329 174.5,388.5C 174.5,389.5 174.5,390.5 174.5,391.5C 177.512,390.314 180.512,390.48 183.5,392C 182.304,392.654 182.304,393.154 183.5,393.5C 184.251,392.624 184.751,391.624 185,390.5C 186.667,393.167 188.333,395.833 190,398.5C 191.562,393.372 192.895,393.372 194,398.5C 194.483,397.552 194.649,396.552 194.5,395.5C 195.93,395.421 197.264,395.754 198.5,396.5C 199.192,395.975 199.692,395.308 200,394.5C 200.741,395.641 201.575,395.641 202.5,394.5C 202.36,395.569 202.36,396.736 202.5,398C 203.784,398.684 204.951,398.517 206,397.5C 207.079,399.394 208.413,399.727 210,398.5C 211.481,401.064 212.981,401.064 214.5,398.5C 212.252,397.676 212.086,396.676 214,395.5C 215.043,397.701 215.877,400.034 216.5,402.5C 217.311,400.609 218.644,399.276 220.5,398.5C 221.731,399.651 221.731,400.817 220.5,402C 221.025,402.692 221.692,403.192 222.5,403.5C 225.215,401.37 227.715,401.703 230,404.5C 231.944,399.235 233.944,399.235 236,404.5C 236.667,403.167 237.667,402.167 239,401.5C 239.465,402.931 240.299,404.097 241.5,405C 240.549,405.718 240.383,406.551 241,407.5C 243.071,404.584 244.405,404.918 245,408.5C 245.934,403.827 247.434,403.494 249.5,407.5C 251.663,406.763 253.996,406.43 256.5,406.5C 259.183,409.452 262.349,410.452 266,409.5C 266.308,410.308 266.808,410.975 267.5,411.5C 268.814,410.687 269.981,409.687 271,408.5C 272.793,410.806 274.96,411.139 277.5,409.5C 282.79,411.235 288.29,412.235 294,412.5C 302.115,412.591 310.281,412.424 318.5,412C 320.235,409.808 321.402,407.308 322,404.5C 324.049,392.579 325.549,380.579 326.5,368.5C 327.542,372.099 327.875,377.766 327.5,385.5C 326.976,394.99 326.309,404.324 325.5,413.5C 325.663,411.143 325.497,408.81 325,406.5C 323.73,410.77 320.896,413.27 316.5,414C 243.496,414.66 170.496,414.326 97.5,413C 95.9491,406.044 94.6158,399.044 93.5,392C 94.0814,391.107 94.4148,390.107 94.5,389C 93.615,379.138 92.4484,369.304 91,359.5C 90.5006,365.157 90.3339,370.824 90.5,376.5C 89.6909,374.708 89.1909,372.708 89,370.5C 84.7759,377.781 80.9425,385.281 77.5,393C 75.2622,401.784 73.2622,410.618 71.5,419.5C 70.5,419.5 69.5,419.5 68.5,419.5C 70.2039,408.884 73.0372,398.551 77,388.5C 80.8457,379.479 84.679,370.479 88.5,361.5C 88.9363,356.061 89.9363,350.728 91.5,345.5 Z"/></g>
<g><path style="opacity:1" fill="#bdbdbd" d="M 339.5,419.5 C 333.5,419.5 327.5,419.5 321.5,419.5C 322.5,418.167 323.5,416.833 324.5,415.5C 325.338,415.158 325.672,414.492 325.5,413.5C 326.309,404.324 326.976,394.99 327.5,385.5C 328.222,385.082 328.722,384.416 329,383.5C 333.825,395.139 337.325,407.139 339.5,419.5 Z"/></g>
<g><path style="opacity:1" fill="#c2c2c2" d="M 90.5,376.5 C 91.0767,388.493 91.5767,400.493 92,412.5C 92.2321,413.737 92.7321,414.737 93.5,415.5C 94.5,416.833 95.5,418.167 96.5,419.5C 88.1667,419.5 79.8333,419.5 71.5,419.5C 73.2622,410.618 75.2622,401.784 77.5,393C 80.9425,385.281 84.7759,377.781 89,370.5C 89.1909,372.708 89.6909,374.708 90.5,376.5 Z"/></g>
<g><path style="opacity:1" fill="#828489" d="M 325.5,413.5 C 325.672,414.492 325.338,415.158 324.5,415.5C 323.279,414.535 321.946,414.702 320.5,416C 246.5,416.667 172.5,416.667 98.5,416C 97.0337,415.365 95.7003,414.531 94.5,413.5C 93.7025,413.957 93.3691,414.624 93.5,415.5C 92.7321,414.737 92.2321,413.737 92,412.5C 91.5767,400.493 91.0767,388.493 90.5,376.5C 90.3339,370.824 90.5006,365.157 91,359.5C 92.4484,369.304 93.615,379.138 94.5,389C 94.4148,390.107 94.0814,391.107 93.5,392C 94.6158,399.044 95.9491,406.044 97.5,413C 170.496,414.326 243.496,414.66 316.5,414C 320.896,413.27 323.73,410.77 325,406.5C 325.497,408.81 325.663,411.143 325.5,413.5 Z"/></g>
<g><path style="opacity:1" fill="#6b6d72" d="M 324.5,415.5 C 323.5,416.833 322.5,418.167 321.5,419.5C 246.5,419.5 171.5,419.5 96.5,419.5C 95.5,418.167 94.5,416.833 93.5,415.5C 93.3691,414.624 93.7025,413.957 94.5,413.5C 95.7003,414.531 97.0337,415.365 98.5,416C 172.5,416.667 246.5,416.667 320.5,416C 321.946,414.702 323.279,414.535 324.5,415.5 Z"/></g>
</svg>
