<svg xmlns="http://www.w3.org/2000/svg" xmlns:xlink="http://www.w3.org/1999/xlink" width="94" zoomAndPan="magnify" viewBox="0 0 70.5 70.499999" height="94" preserveAspectRatio="xMidYMid meet" version="1.0"><defs><g/><clipPath id="1ea7c42079"><path d="M 0 0 L 70.003906 0 L 70.003906 70.003906 L 0 70.003906 Z M 0 0 " clip-rule="nonzero"/></clipPath></defs><g clip-path="url(#1ea7c42079)"><path fill="#ffffff" d="M 0 0 L 70.003906 0 L 70.003906 70.003906 L 0 70.003906 Z M 0 0 " fill-opacity="1" fill-rule="nonzero"/><path fill="#ffffff" d="M 0 0 L 70.003906 0 L 70.003906 70.003906 L 0 70.003906 Z M 0 0 " fill-opacity="1" fill-rule="nonzero"/></g><g fill="#000000" fill-opacity="1"><g transform="translate(10.034682, 40.587147)"><g><path d="M 0.46875 -4.71875 C 0.46875 -5.6875 0.648438 -6.535156 1.015625 -7.265625 C 1.378906 -8.003906 1.875 -8.566406 2.5 -8.953125 C 3.132812 -9.347656 3.84375 -9.546875 4.625 -9.546875 C 5.289062 -9.546875 5.875 -9.410156 6.375 -9.140625 C 6.875 -8.867188 7.257812 -8.515625 7.53125 -8.078125 L 7.53125 -9.421875 L 10.40625 -9.421875 L 10.40625 0 L 7.53125 0 L 7.53125 -1.328125 C 7.25 -0.890625 6.859375 -0.535156 6.359375 -0.265625 C 5.859375 0.00390625 5.273438 0.140625 4.609375 0.140625 C 3.835938 0.140625 3.132812 -0.0546875 2.5 -0.453125 C 1.875 -0.859375 1.378906 -1.429688 1.015625 -2.171875 C 0.648438 -2.910156 0.46875 -3.757812 0.46875 -4.71875 Z M 7.53125 -4.703125 C 7.53125 -5.421875 7.328125 -5.988281 6.921875 -6.40625 C 6.523438 -6.820312 6.039062 -7.03125 5.46875 -7.03125 C 4.894531 -7.03125 4.40625 -6.828125 4 -6.421875 C 3.601562 -6.015625 3.40625 -5.445312 3.40625 -4.71875 C 3.40625 -4 3.601562 -3.425781 4 -3 C 4.40625 -2.582031 4.894531 -2.375 5.46875 -2.375 C 6.039062 -2.375 6.523438 -2.582031 6.921875 -3 C 7.328125 -3.414062 7.53125 -3.984375 7.53125 -4.703125 Z M 7.53125 -4.703125 "/></g></g></g><g fill="#000000" fill-opacity="1"><g transform="translate(20.157574, 40.587147)"><g><path d="M 4.625 -9.546875 C 5.289062 -9.546875 5.875 -9.410156 6.375 -9.140625 C 6.875 -8.867188 7.257812 -8.515625 7.53125 -8.078125 L 7.53125 -9.421875 L 10.40625 -9.421875 L 10.40625 -0.015625 C 10.40625 0.847656 10.234375 1.628906 9.890625 2.328125 C 9.546875 3.035156 9.019531 3.597656 8.3125 4.015625 C 7.613281 4.429688 6.742188 4.640625 5.703125 4.640625 C 4.304688 4.640625 3.175781 4.3125 2.3125 3.65625 C 1.445312 3 0.953125 2.109375 0.828125 0.984375 L 3.671875 0.984375 C 3.765625 1.335938 3.976562 1.617188 4.3125 1.828125 C 4.65625 2.035156 5.070312 2.140625 5.5625 2.140625 C 6.164062 2.140625 6.644531 1.96875 7 1.625 C 7.351562 1.28125 7.53125 0.734375 7.53125 -0.015625 L 7.53125 -1.34375 C 7.25 -0.90625 6.859375 -0.546875 6.359375 -0.265625 C 5.867188 0.00390625 5.289062 0.140625 4.625 0.140625 C 3.84375 0.140625 3.132812 -0.0546875 2.5 -0.453125 C 1.875 -0.859375 1.378906 -1.429688 1.015625 -2.171875 C 0.648438 -2.910156 0.46875 -3.757812 0.46875 -4.71875 C 0.46875 -5.6875 0.648438 -6.535156 1.015625 -7.265625 C 1.378906 -8.003906 1.875 -8.566406 2.5 -8.953125 C 3.132812 -9.347656 3.84375 -9.546875 4.625 -9.546875 Z M 7.53125 -4.703125 C 7.53125 -5.421875 7.328125 -5.988281 6.921875 -6.40625 C 6.523438 -6.820312 6.039062 -7.03125 5.46875 -7.03125 C 4.894531 -7.03125 4.40625 -6.828125 4 -6.421875 C 3.601562 -6.015625 3.40625 -5.445312 3.40625 -4.71875 C 3.40625 -4 3.601562 -3.425781 4 -3 C 4.40625 -2.582031 4.894531 -2.375 5.46875 -2.375 C 6.039062 -2.375 6.523438 -2.582031 6.921875 -3 C 7.328125 -3.414062 7.53125 -3.984375 7.53125 -4.703125 Z M 7.53125 -4.703125 "/></g></g></g><g fill="#000000" fill-opacity="1"><g transform="translate(30.280466, 40.587147)"><g><path d="M 5.765625 -7.015625 L 4.21875 -7.015625 L 4.21875 0 L 1.328125 0 L 1.328125 -7.015625 L 0.28125 -7.015625 L 0.28125 -9.421875 L 1.328125 -9.421875 L 1.328125 -9.6875 C 1.328125 -10.84375 1.660156 -11.722656 2.328125 -12.328125 C 2.992188 -12.929688 3.96875 -13.234375 5.25 -13.234375 C 5.457031 -13.234375 5.613281 -13.226562 5.71875 -13.21875 L 5.71875 -10.765625 C 5.164062 -10.796875 4.773438 -10.71875 4.546875 -10.53125 C 4.328125 -10.34375 4.21875 -10 4.21875 -9.5 L 4.21875 -9.421875 L 5.765625 -9.421875 Z M 5.765625 -7.015625 "/></g></g></g><g fill="#000000" fill-opacity="1"><g transform="translate(35.021036, 40.587147)"><g><path d="M 13.0625 -9.515625 C 14.226562 -9.515625 15.15625 -9.160156 15.84375 -8.453125 C 16.539062 -7.742188 16.890625 -6.757812 16.890625 -5.5 L 16.890625 0 L 14.015625 0 L 14.015625 -5.109375 C 14.015625 -5.722656 13.851562 -6.191406 13.53125 -6.515625 C 13.21875 -6.847656 12.78125 -7.015625 12.21875 -7.015625 C 11.65625 -7.015625 11.210938 -6.847656 10.890625 -6.515625 C 10.566406 -6.191406 10.40625 -5.722656 10.40625 -5.109375 L 10.40625 0 L 7.546875 0 L 7.546875 -5.109375 C 7.546875 -5.722656 7.382812 -6.191406 7.0625 -6.515625 C 6.738281 -6.847656 6.296875 -7.015625 5.734375 -7.015625 C 5.171875 -7.015625 4.726562 -6.847656 4.40625 -6.515625 C 4.09375 -6.191406 3.9375 -5.722656 3.9375 -5.109375 L 3.9375 0 L 1.046875 0 L 1.046875 -9.421875 L 3.9375 -9.421875 L 3.9375 -8.234375 C 4.226562 -8.628906 4.609375 -8.941406 5.078125 -9.171875 C 5.546875 -9.398438 6.082031 -9.515625 6.6875 -9.515625 C 7.394531 -9.515625 8.023438 -9.363281 8.578125 -9.0625 C 9.140625 -8.757812 9.578125 -8.328125 9.890625 -7.765625 C 10.210938 -8.273438 10.65625 -8.691406 11.21875 -9.015625 C 11.78125 -9.347656 12.394531 -9.515625 13.0625 -9.515625 Z M 13.0625 -9.515625 "/></g></g></g><g fill="#000000" fill-opacity="1"><g transform="translate(51.555475, 40.587147)"><g><path d="M 2.5 -10.390625 C 1.988281 -10.390625 1.570312 -10.539062 1.25 -10.84375 C 0.9375 -11.144531 0.78125 -11.515625 0.78125 -11.953125 C 0.78125 -12.398438 0.9375 -12.769531 1.25 -13.0625 C 1.570312 -13.363281 1.988281 -13.515625 2.5 -13.515625 C 2.988281 -13.515625 3.394531 -13.363281 3.71875 -13.0625 C 4.039062 -12.769531 4.203125 -12.398438 4.203125 -11.953125 C 4.203125 -11.515625 4.039062 -11.144531 3.71875 -10.84375 C 3.394531 -10.539062 2.988281 -10.390625 2.5 -10.390625 Z M 3.9375 -9.421875 L 3.9375 0 L 1.046875 0 L 1.046875 -9.421875 Z M 3.9375 -9.421875 "/></g></g></g><g fill="#000000" fill-opacity="1"><g transform="translate(55.199332, 40.587147)"><g><path d="M 2.390625 0.140625 C 1.890625 0.140625 1.476562 -0.0078125 1.15625 -0.3125 C 0.832031 -0.613281 0.671875 -0.984375 0.671875 -1.421875 C 0.671875 -1.867188 0.832031 -2.242188 1.15625 -2.546875 C 1.476562 -2.847656 1.890625 -3 2.390625 -3 C 2.890625 -3 3.296875 -2.847656 3.609375 -2.546875 C 3.929688 -2.242188 4.09375 -1.867188 4.09375 -1.421875 C 4.09375 -0.984375 3.929688 -0.613281 3.609375 -0.3125 C 3.296875 -0.0078125 2.890625 0.140625 2.390625 0.140625 Z M 2.390625 0.140625 "/></g></g></g></svg>