<?xml version="1.0" encoding="UTF-8"?>
<!DOCTYPE svg PUBLIC "-//W3C//DTD SVG 1.1//EN" "http://www.w3.org/Graphics/SVG/1.1/DTD/svg11.dtd">
<svg xmlns="http://www.w3.org/2000/svg" version="1.1" width="200px" height="200px" style="shape-rendering:geometricPrecision; text-rendering:geometricPrecision; image-rendering:optimizeQuality; fill-rule:evenodd; clip-rule:evenodd" xmlns:xlink="http://www.w3.org/1999/xlink">
<g><path style="opacity:0.961" fill="#483226" d="M 140.5,52.5 C 139.717,54.3432 139.05,56.3432 138.5,58.5C 136.944,60.7015 135.777,60.7015 135,58.5C 133.016,60.6134 130.516,61.7801 127.5,62C 119.791,62.0978 112.291,63.2644 105,65.5C 104.899,60.0541 104.232,54.7207 103,49.5C 102.503,51.8098 102.337,54.1432 102.5,56.5C 101.45,51.918 100.283,47.2513 99,42.5C 94.9683,38.0727 90.4683,37.4061 85.5,40.5C 90.6253,45.4172 93.6253,51.4172 94.5,58.5C 91.3887,56.3144 89.222,53.3144 88,49.5C 86.6766,46.9414 84.8433,46.2747 82.5,47.5C 85.6629,50.3169 87.9962,53.6502 89.5,57.5C 84.9871,53.8239 80.3204,50.3239 75.5,47C 69.2999,45.3654 63.9666,46.6987 59.5,51C 64.5326,51.7002 69.1992,53.2002 73.5,55.5C 67.5106,54.2366 61.5106,53.2366 55.5,52.5C 55.8588,50.629 56.8588,49.129 58.5,48C 63.9507,45.74 68.9507,42.74 73.5,39C 78.1058,36.8062 82.9391,35.3062 88,34.5C 104.421,32.2528 119.588,35.7528 133.5,45C 135.823,47.4982 138.157,49.9982 140.5,52.5 Z"/></g>
<g><path style="opacity:1" fill="#6f5447" d="M 101.5,38.5 C 112.224,38.0048 121.89,40.8381 130.5,47C 131.325,51.3526 129.658,54.6859 125.5,57C 118.914,58.6786 112.248,59.8453 105.5,60.5C 105.833,52.8343 104.5,45.501 101.5,38.5 Z"/></g>
<g><path style="opacity:1" fill="#6e5345" d="M 102.5,56.5 C 102.5,57.8333 102.5,59.1667 102.5,60.5C 99.6592,60.4403 96.9925,59.7736 94.5,58.5C 93.6253,51.4172 90.6253,45.4172 85.5,40.5C 90.4683,37.4061 94.9683,38.0727 99,42.5C 100.283,47.2513 101.45,51.918 102.5,56.5 Z"/></g>
<g><path style="opacity:1" fill="#6c5144" d="M 89.5,57.5 C 89.38,58.5862 88.7133,59.2528 87.5,59.5C 83.4388,57.3691 79.1055,56.0358 74.5,55.5C 74.1667,55.5 73.8333,55.5 73.5,55.5C 69.1992,53.2002 64.5326,51.7002 59.5,51C 63.9666,46.6987 69.2999,45.3654 75.5,47C 80.3204,50.3239 84.9871,53.8239 89.5,57.5 Z"/></g>
<g><path style="opacity:1" fill="#241308" d="M 55.5,52.5 C 61.5106,53.2366 67.5106,54.2366 73.5,55.5C 73.8333,55.5 74.1667,55.5 74.5,55.5C 79.1342,57.2615 83.4675,59.7615 87.5,63C 88.1667,65 89.5,66.3333 91.5,67C 90.9056,67.4643 90.2389,67.631 89.5,67.5C 83.1667,67.5 76.8333,67.5 70.5,67.5C 66.4559,67.1564 62.4559,66.4898 58.5,65.5C 56.8857,65.8029 55.5523,66.4695 54.5,67.5C 51.575,62.1802 51.9083,57.1802 55.5,52.5 Z"/></g>
<g><path style="opacity:1" fill="#231206" d="M 142.5,57.5 C 142.5,58.5 142.5,59.5 142.5,60.5C 139.899,63.6043 137.066,66.6043 134,69.5C 133.667,68.8333 133.333,68.1667 133,67.5C 131.644,68.3802 130.144,68.7135 128.5,68.5C 122.879,67.6463 117.212,67.313 111.5,67.5C 109.801,67.6602 108.134,67.4935 106.5,67C 115.96,63.6382 125.627,62.8048 135.5,64.5C 138.103,62.3793 140.436,60.046 142.5,57.5 Z"/></g>
<g><path style="opacity:1" fill="#362318" d="M 94.5,58.5 C 96.9925,59.7736 99.6592,60.4403 102.5,60.5C 102.5,59.1667 102.5,57.8333 102.5,56.5C 102.337,54.1432 102.503,51.8098 103,49.5C 104.232,54.7207 104.899,60.0541 105,65.5C 112.291,63.2644 119.791,62.0978 127.5,62C 130.516,61.7801 133.016,60.6134 135,58.5C 135.777,60.7015 136.944,60.7015 138.5,58.5C 139.05,56.3432 139.717,54.3432 140.5,52.5C 141.942,53.8195 142.608,55.4862 142.5,57.5C 140.436,60.046 138.103,62.3793 135.5,64.5C 125.627,62.8048 115.96,63.6382 106.5,67C 108.134,67.4935 109.801,67.6602 111.5,67.5C 105.355,68.4902 99.0221,68.8235 92.5,68.5C 91.5,68.5 90.5,68.5 89.5,68.5C 89.5,68.1667 89.5,67.8333 89.5,67.5C 90.2389,67.631 90.9056,67.4643 91.5,67C 89.5,66.3333 88.1667,65 87.5,63C 83.4675,59.7615 79.1342,57.2615 74.5,55.5C 79.1055,56.0358 83.4388,57.3691 87.5,59.5C 88.7133,59.2528 89.38,58.5862 89.5,57.5C 87.9962,53.6502 85.6629,50.3169 82.5,47.5C 84.8433,46.2747 86.6766,46.9414 88,49.5C 89.222,53.3144 91.3887,56.3144 94.5,58.5 Z"/></g>
<g><path style="opacity:1" fill="#e4c4a9" d="M 70.5,67.5 C 76.8333,67.5 83.1667,67.5 89.5,67.5C 89.5,67.8333 89.5,68.1667 89.5,68.5C 84.7858,68.3531 80.1191,68.6864 75.5,69.5C 73.7268,76.1016 74.3934,82.4349 77.5,88.5C 78.6651,89.5836 79.9984,90.4169 81.5,91C 87.5,92.5 93.5,94 99.5,95.5C 105.5,94 111.5,92.5 117.5,91C 119.002,90.4169 120.335,89.5836 121.5,88.5C 124.96,82.2646 125.293,75.9312 122.5,69.5C 125.206,69.5751 127.873,69.9084 130.5,70.5C 130.666,77.5079 130.5,84.5079 130,91.5C 128.89,93.0368 127.39,93.7035 125.5,93.5C 120.663,93.1162 115.997,93.7829 111.5,95.5C 110.702,95.9569 110.369,96.6236 110.5,97.5C 108.404,99.4333 106.904,101.767 106,104.5C 105.501,108.486 105.334,112.486 105.5,116.5C 106.833,116.5 108.167,116.5 109.5,116.5C 110.5,116.833 111.167,117.5 111.5,118.5C 110.733,119.172 110.066,120.005 109.5,121C 103.486,119.255 100.986,115.088 102,108.5C 100.333,105.833 98.6667,105.833 97,108.5C 97.9026,114.464 95.7359,118.798 90.5,121.5C 88.8888,120.68 88.2222,119.346 88.5,117.5C 89.1098,116.609 89.4431,115.609 89.5,114.5C 90.5,114.5 91.5,114.5 92.5,114.5C 94.0727,108.005 92.0727,103.172 86.5,100C 87.2524,99.3292 87.5858,98.4959 87.5,97.5C 88.7733,96.9232 88.7733,96.2565 87.5,95.5C 81.6186,93.2384 75.6186,92.9051 69.5,94.5C 67.8031,92.6948 66.9698,90.3615 67,87.5C 66.2153,81.7507 66.3819,76.084 67.5,70.5C 68.3065,69.2719 69.3065,68.2719 70.5,67.5 Z"/></g>
<g><path style="opacity:1" fill="#f3d4bb" d="M 89.5,68.5 C 90.5,68.5 91.5,68.5 92.5,68.5C 92.5,68.8333 92.5,69.1667 92.5,69.5C 83.1225,68.9193 79.2892,73.2527 81,82.5C 82.8006,85.1634 85.3006,86.9967 88.5,88C 98.4978,92.3114 107.998,91.1447 117,84.5C 119.794,78.4076 118.627,73.4076 113.5,69.5C 116.5,69.5 119.5,69.5 122.5,69.5C 125.293,75.9312 124.96,82.2646 121.5,88.5C 120.335,89.5836 119.002,90.4169 117.5,91C 111.5,92.5 105.5,94 99.5,95.5C 93.5,94 87.5,92.5 81.5,91C 79.9984,90.4169 78.6651,89.5836 77.5,88.5C 74.3934,82.4349 73.7268,76.1016 75.5,69.5C 80.1191,68.6864 84.7858,68.3531 89.5,68.5 Z"/></g>
<g><path style="opacity:1" fill="#fde1c9" d="M 92.5,69.5 C 99.5,69.5 106.5,69.5 113.5,69.5C 118.627,73.4076 119.794,78.4076 117,84.5C 107.998,91.1447 98.4978,92.3114 88.5,88C 85.3006,86.9967 82.8006,85.1634 81,82.5C 79.2892,73.2527 83.1225,68.9193 92.5,69.5 Z"/></g>
<g><path style="opacity:1" fill="#473125" d="M 64.5,72.5 C 61.3099,76.5772 59.6432,81.2439 59.5,86.5C 58.8333,88.8333 58.1667,91.1667 57.5,93.5C 53.663,88.1671 52.163,82.1671 53,75.5C 56.2575,71.9373 60.0908,70.9373 64.5,72.5 Z"/></g>
<g><path style="opacity:1" fill="#483225" d="M 141.5,93.5 C 141.167,93.5 140.833,93.5 140.5,93.5C 140.506,85.8484 138.506,78.8484 134.5,72.5C 138.421,70.8483 141.921,71.515 145,74.5C 144.928,81.026 143.762,87.3594 141.5,93.5 Z"/></g>
<g><path style="opacity:1" fill="#321f15" d="M 70.5,67.5 C 69.3065,68.2719 68.3065,69.2719 67.5,70.5C 65.9731,70.427 64.9731,71.0937 64.5,72.5C 60.0908,70.9373 56.2575,71.9373 53,75.5C 52.163,82.1671 53.663,88.1671 57.5,93.5C 56.7947,101.808 56.2947,110.141 56,118.5C 55.7679,117.263 55.2679,116.263 54.5,115.5C 54.8128,111.958 54.4794,108.625 53.5,105.5C 50.4144,94.922 49.5811,84.2553 51,73.5C 51.4238,70.9746 52.5905,68.9746 54.5,67.5C 55.5523,66.4695 56.8857,65.8029 58.5,65.5C 62.4559,66.4898 66.4559,67.1564 70.5,67.5 Z"/></g>
<g><path style="opacity:1" fill="#311f15" d="M 142.5,60.5 C 143.713,65.033 145.547,69.3663 148,73.5C 149.419,84.2553 148.586,94.922 145.5,105.5C 144.833,105.5 144.5,105.833 144.5,106.5C 144.5,108.5 144.5,110.5 144.5,112.5C 143.815,114.414 143.315,116.414 143,118.5C 142.705,110.141 142.205,101.808 141.5,93.5C 143.762,87.3594 144.928,81.026 145,74.5C 141.921,71.515 138.421,70.8483 134.5,72.5C 132.81,70.6583 130.81,69.325 128.5,68.5C 130.144,68.7135 131.644,68.3802 133,67.5C 133.333,68.1667 133.667,68.8333 134,69.5C 137.066,66.6043 139.899,63.6043 142.5,60.5 Z"/></g>
<g><path style="opacity:1" fill="#655145" d="M 125.5,93.5 C 127.781,94.3385 130.115,95.3385 132.5,96.5C 133.833,97.1667 133.833,97.8333 132.5,98.5C 125.276,96.1765 117.943,95.8431 110.5,97.5C 110.369,96.6236 110.702,95.9569 111.5,95.5C 115.997,93.7829 120.663,93.1162 125.5,93.5 Z"/></g>
<g><path style="opacity:1" fill="#cba78a" d="M 111.5,67.5 C 117.212,67.313 122.879,67.6463 128.5,68.5C 130.81,69.325 132.81,70.6583 134.5,72.5C 138.506,78.8484 140.506,85.8484 140.5,93.5C 139.494,105.233 139.494,116.899 140.5,128.5C 137.167,128.5 133.833,128.5 130.5,128.5C 132.184,123.786 132.517,119.119 131.5,114.5C 132.341,111.022 131.341,108.022 128.5,105.5C 127.713,103.896 126.38,103.229 124.5,103.5C 120.019,102.352 115.352,102.185 110.5,103C 107.048,106.406 106.714,109.906 109.5,113.5C 109.5,114.5 109.5,115.5 109.5,116.5C 108.167,116.5 106.833,116.5 105.5,116.5C 105.334,112.486 105.501,108.486 106,104.5C 106.904,101.767 108.404,99.4333 110.5,97.5C 117.943,95.8431 125.276,96.1765 132.5,98.5C 133.833,97.8333 133.833,97.1667 132.5,96.5C 130.115,95.3385 127.781,94.3385 125.5,93.5C 127.39,93.7035 128.89,93.0368 130,91.5C 130.5,84.5079 130.666,77.5079 130.5,70.5C 127.873,69.9084 125.206,69.5751 122.5,69.5C 119.5,69.5 116.5,69.5 113.5,69.5C 106.5,69.5 99.5,69.5 92.5,69.5C 92.5,69.1667 92.5,68.8333 92.5,68.5C 99.0221,68.8235 105.355,68.4902 111.5,67.5 Z"/></g>
<g><path style="opacity:1" fill="#aa8061" d="M 59.5,86.5 C 59.8151,100.579 59.4818,114.579 58.5,128.5C 57.5,128.5 56.5,128.5 55.5,128.5C 55.2881,123.986 54.2881,119.652 52.5,115.5C 52.6667,114.833 52.8333,114.167 53,113.5C 53.2784,114.416 53.7784,115.082 54.5,115.5C 55.2679,116.263 55.7679,117.263 56,118.5C 56.2947,110.141 56.7947,101.808 57.5,93.5C 58.1667,91.1667 58.8333,88.8333 59.5,86.5 Z"/></g>
<g><path style="opacity:1" fill="#685548" d="M 87.5,97.5 C 80.3749,95.8745 73.3749,96.2078 66.5,98.5C 65.479,97.9984 65.3123,97.3317 66,96.5C 67.3024,95.9152 68.469,95.2485 69.5,94.5C 75.6186,92.9051 81.6186,93.2384 87.5,95.5C 88.7733,96.2565 88.7733,96.9232 87.5,97.5 Z"/></g>
<g><path style="opacity:1" fill="#2c221c" d="M 124.5,103.5 C 126.38,103.229 127.713,103.896 128.5,105.5C 126.847,105.34 125.514,104.674 124.5,103.5 Z"/></g>
<g><path style="opacity:1" fill="#a68368" d="M 124.5,103.5 C 122.265,103.205 120.265,103.539 118.5,104.5C 113.537,105.463 110.537,108.463 109.5,113.5C 106.714,109.906 107.048,106.406 110.5,103C 115.352,102.185 120.019,102.352 124.5,103.5 Z"/></g>
<g><path style="opacity:1" fill="#543d1f" d="M 75.5,103.5 C 78.3404,102.083 81.007,102.416 83.5,104.5C 82.7611,104.369 82.0944,104.536 81.5,105C 84.962,107.239 86.2954,110.406 85.5,114.5C 84.9826,112.49 84.316,111.157 83.5,110.5C 82.3579,108.028 80.3579,107.028 77.5,107.5C 76.5,107.5 75.5,107.5 74.5,107.5C 74.5,108.5 74.5,109.5 74.5,110.5C 74.5,111.5 74.5,112.5 74.5,113.5C 73.9569,113.56 73.6236,113.893 73.5,114.5C 74.5244,115.852 75.5244,117.185 76.5,118.5C 72.0744,116.641 70.5744,113.308 72,108.5C 74.194,105.819 77.0273,104.319 80.5,104C 78.8659,103.506 77.1992,103.34 75.5,103.5 Z"/></g>
<g><path style="opacity:1" fill="#e4c1a5" d="M 151.5,108.5 C 150.448,108.351 149.448,108.517 148.5,109C 147.897,111.071 146.564,112.238 144.5,112.5C 144.5,110.5 144.5,108.5 144.5,106.5C 145.167,106.5 145.5,106.167 145.5,105.5C 148.821,103.827 150.821,104.827 151.5,108.5 Z"/></g>
<g><path style="opacity:1" fill="#cba88c" d="M 67.5,70.5 C 66.3819,76.084 66.2153,81.7507 67,87.5C 66.9698,90.3615 67.8031,92.6948 69.5,94.5C 68.469,95.2485 67.3024,95.9152 66,96.5C 65.3123,97.3317 65.479,97.9984 66.5,98.5C 73.3749,96.2078 80.3749,95.8745 87.5,97.5C 87.5858,98.4959 87.2524,99.3292 86.5,100C 92.0727,103.172 94.0727,108.005 92.5,114.5C 91.5,114.5 90.5,114.5 89.5,114.5C 89.0076,110.169 87.0076,106.836 83.5,104.5C 81.007,102.416 78.3404,102.083 75.5,103.5C 74.0697,104.537 72.403,105.204 70.5,105.5C 68.2988,105.858 66.9655,107.192 66.5,109.5C 66.6236,110.107 66.9569,110.44 67.5,110.5C 66.8902,111.391 66.5569,112.391 66.5,113.5C 65.9033,113.735 65.5699,114.235 65.5,115C 67.1531,119.399 68.4865,123.899 69.5,128.5C 65.8333,128.5 62.1667,128.5 58.5,128.5C 59.4818,114.579 59.8151,100.579 59.5,86.5C 59.6432,81.2439 61.3099,76.5772 64.5,72.5C 64.9731,71.0937 65.9731,70.427 67.5,70.5 Z"/></g>
<g><path style="opacity:1" fill="#50443b" d="M 70.5,105.5 C 69.2485,107.001 68.2485,108.668 67.5,110.5C 66.9569,110.44 66.6236,110.107 66.5,109.5C 66.9655,107.192 68.2988,105.858 70.5,105.5 Z"/></g>
<g><path style="opacity:1" fill="#e0dfde" d="M 124.5,103.5 C 125.514,104.674 126.847,105.34 128.5,105.5C 131.341,108.022 132.341,111.022 131.5,114.5C 127.221,120.09 121.555,121.924 114.5,120C 113.473,119.487 112.473,118.987 111.5,118.5C 111.167,117.5 110.5,116.833 109.5,116.5C 109.5,115.5 109.5,114.5 109.5,113.5C 110.537,108.463 113.537,105.463 118.5,104.5C 120.265,103.539 122.265,103.205 124.5,103.5 Z"/></g>
<g><path style="opacity:1" fill="#5b4324" d="M 118.5,104.5 C 125.032,104.697 128.032,108.031 127.5,114.5C 126.778,114.082 126.278,113.416 126,112.5C 125.617,113.056 125.117,113.389 124.5,113.5C 124.55,108.155 122.55,106.822 118.5,109.5C 118.053,107.027 117.053,106.86 115.5,109C 116.056,109.383 116.389,109.883 116.5,110.5C 115.701,114.071 117.368,116.071 121.5,116.5C 121.179,118.048 120.179,118.715 118.5,118.5C 113.817,116.79 112.317,113.457 114,108.5C 115.397,106.93 116.897,105.596 118.5,104.5 Z"/></g>
<g><path style="opacity:1" fill="#eceae8" d="M 118.5,109.5 C 118.158,110.338 117.492,110.672 116.5,110.5C 116.389,109.883 116.056,109.383 115.5,109C 117.053,106.86 118.053,107.027 118.5,109.5 Z"/></g>
<g><path style="opacity:1" fill="#090502" d="M 124.5,113.5 C 123.833,114.833 122.833,115.833 121.5,116.5C 117.368,116.071 115.701,114.071 116.5,110.5C 117.492,110.672 118.158,110.338 118.5,109.5C 122.55,106.822 124.55,108.155 124.5,113.5 Z"/></g>
<g><path style="opacity:1" fill="#e2e0df" d="M 75.5,103.5 C 77.1992,103.34 78.8659,103.506 80.5,104C 77.0273,104.319 74.194,105.819 72,108.5C 70.5744,113.308 72.0744,116.641 76.5,118.5C 80.3926,119.731 83.3926,118.398 85.5,114.5C 86.2954,110.406 84.962,107.239 81.5,105C 82.0944,104.536 82.7611,104.369 83.5,104.5C 87.0076,106.836 89.0076,110.169 89.5,114.5C 89.4431,115.609 89.1098,116.609 88.5,117.5C 79.8972,122.476 72.5638,121.143 66.5,113.5C 66.5569,112.391 66.8902,111.391 67.5,110.5C 68.2485,108.668 69.2485,107.001 70.5,105.5C 72.403,105.204 74.0697,104.537 75.5,103.5 Z"/></g>
<g><path style="opacity:1" fill="#eaeae9" d="M 77.5,107.5 C 77.5,109.5 76.5,110.5 74.5,110.5C 74.5,109.5 74.5,108.5 74.5,107.5C 75.5,107.5 76.5,107.5 77.5,107.5 Z"/></g>
<g><path style="opacity:1" fill="#0b0804" d="M 77.5,107.5 C 80.3579,107.028 82.3579,108.028 83.5,110.5C 83.0369,114.803 80.7035,116.636 76.5,116C 75.6195,115.292 74.9528,114.458 74.5,113.5C 74.5,112.5 74.5,111.5 74.5,110.5C 76.5,110.5 77.5,109.5 77.5,107.5 Z"/></g>
<g><path style="opacity:1" fill="#967658" d="M 85.5,114.5 C 83.3926,118.398 80.3926,119.731 76.5,118.5C 75.5244,117.185 74.5244,115.852 73.5,114.5C 73.6236,113.893 73.9569,113.56 74.5,113.5C 74.9528,114.458 75.6195,115.292 76.5,116C 80.7035,116.636 83.0369,114.803 83.5,110.5C 84.316,111.157 84.9826,112.49 85.5,114.5 Z"/></g>
<g><path style="opacity:1" fill="#a18167" d="M 127.5,114.5 C 125.393,118.398 122.393,119.731 118.5,118.5C 120.179,118.715 121.179,118.048 121.5,116.5C 122.833,115.833 123.833,114.833 124.5,113.5C 125.117,113.389 125.617,113.056 126,112.5C 126.278,113.416 126.778,114.082 127.5,114.5 Z"/></g>
<g><path style="opacity:1" fill="#d2ac8e" d="M 53.5,105.5 C 54.4794,108.625 54.8128,111.958 54.5,115.5C 53.7784,115.082 53.2784,114.416 53,113.5C 52.8333,114.167 52.6667,114.833 52.5,115.5C 54.2881,119.652 55.2881,123.986 55.5,128.5C 53.2646,128.795 51.2646,128.461 49.5,127.5C 48.3406,122.38 47.3406,117.213 46.5,112C 46.8646,109.739 47.5313,107.573 48.5,105.5C 50.1673,104.334 51.834,104.334 53.5,105.5 Z"/></g>
<g><path style="opacity:1" fill="#a47b5d" d="M 140.5,93.5 C 140.833,93.5 141.167,93.5 141.5,93.5C 142.205,101.808 142.705,110.141 143,118.5C 143.315,116.414 143.815,114.414 144.5,112.5C 146.564,112.238 147.897,111.071 148.5,109C 149.448,108.517 150.448,108.351 151.5,108.5C 151.762,109.978 151.429,111.311 150.5,112.5C 149.186,113.313 148.019,114.313 147,115.5C 147.043,120.247 145.876,124.58 143.5,128.5C 142.5,128.5 141.5,128.5 140.5,128.5C 139.494,116.899 139.494,105.233 140.5,93.5 Z"/></g>
<g><path style="opacity:1" fill="#f4d6be" d="M 111.5,118.5 C 112.473,118.987 113.473,119.487 114.5,120C 121.555,121.924 127.221,120.09 131.5,114.5C 132.517,119.119 132.184,123.786 130.5,128.5C 110.167,128.5 89.8333,128.5 69.5,128.5C 68.4865,123.899 67.1531,119.399 65.5,115C 65.5699,114.235 65.9033,113.735 66.5,113.5C 72.5638,121.143 79.8972,122.476 88.5,117.5C 88.2222,119.346 88.8888,120.68 90.5,121.5C 95.7359,118.798 97.9026,114.464 97,108.5C 98.6667,105.833 100.333,105.833 102,108.5C 100.986,115.088 103.486,119.255 109.5,121C 110.066,120.005 110.733,119.172 111.5,118.5 Z"/></g>
<g><path style="opacity:1" fill="#dcb697" d="M 151.5,108.5 C 152.147,109.274 152.48,110.274 152.5,111.5C 151.713,116.889 150.713,122.222 149.5,127.5C 147.735,128.461 145.735,128.795 143.5,128.5C 145.876,124.58 147.043,120.247 147,115.5C 148.019,114.313 149.186,113.313 150.5,112.5C 151.429,111.311 151.762,109.978 151.5,108.5 Z"/></g>
<g><path style="opacity:1" fill="#dcdee0" d="M 49.5,127.5 C 51.2646,128.461 53.2646,128.795 55.5,128.5C 56.5,128.5 57.5,128.5 58.5,128.5C 62.1667,128.5 65.8333,128.5 69.5,128.5C 89.8333,128.5 110.167,128.5 130.5,128.5C 133.833,128.5 137.167,128.5 140.5,128.5C 141.5,128.5 142.5,128.5 143.5,128.5C 145.735,128.795 147.735,128.461 149.5,127.5C 151.95,127.298 154.283,127.631 156.5,128.5C 118.181,130.494 79.5144,131.161 40.5,130.5C 42.8453,127.925 45.8453,126.925 49.5,127.5 Z"/></g>
<g><path style="opacity:1" fill="#b6b8bd" d="M 42.5,132.5 C 47.5,132.5 52.5,132.5 57.5,132.5C 57.8656,133.695 58.699,134.361 60,134.5C 62.6176,134.117 65.1176,134.117 67.5,134.5C 68.5976,138.361 69.4309,138.361 70,134.5C 71,135.5 72,136.5 73,137.5C 75.5367,137.413 78.0367,137.413 80.5,137.5C 81.7046,139.138 83.0379,139.471 84.5,138.5C 87.0561,139.051 89.3894,140.051 91.5,141.5C 92.8333,141.167 94.1667,140.833 95.5,140.5C 96.6956,140.846 96.6956,141.346 95.5,142C 97.8907,142.287 100.224,142.787 102.5,143.5C 103.842,142.098 104.676,142.431 105,144.5C 106,144.167 107,143.833 108,143.5C 108.333,144.167 108.667,144.833 109,145.5C 110.808,145.112 112.475,145.112 114,145.5C 114.333,144.833 114.667,144.167 115,143.5C 115.519,146.492 117.019,147.492 119.5,146.5C 120.816,149.028 121.983,149.028 123,146.5C 124.996,146.996 126.663,147.996 128,149.5C 128.333,148.833 128.667,148.167 129,147.5C 131.603,149.025 134.103,150.025 136.5,150.5C 137.803,149.282 138.803,149.615 139.5,151.5C 141.235,150.943 142.902,150.61 144.5,150.5C 146.149,151.648 147.649,152.981 149,154.5C 150.828,152.193 152.494,152.526 154,155.5C 154.333,154.167 154.667,152.833 155,151.5C 155.495,154.531 155.329,157.531 154.5,160.5C 153.763,162.382 152.596,163.048 151,162.5C 150.395,160.519 149.395,160.185 148,161.5C 146.108,160.87 144.441,159.87 143,158.5C 140,158.5 137,158.5 134,158.5C 131.566,156.977 128.899,155.977 126,155.5C 125.667,155.833 125.333,156.167 125,156.5C 120.367,154.334 115.7,153.334 111,153.5C 109.209,151.487 107.875,151.487 107,153.5C 106.019,150.311 104.686,149.978 103,152.5C 102.333,151.167 101.667,151.167 101,152.5C 99.7387,149.18 98.072,148.846 96,151.5C 95.5172,150.552 95.3505,149.552 95.5,148.5C 91.7274,148.429 87.8941,148.429 84,148.5C 81.6217,145.07 78.955,144.737 76,147.5C 72.9852,144.09 69.6518,143.09 66,144.5C 64.2672,142.398 62.2672,142.065 60,143.5C 59.6758,141.431 58.8425,141.098 57.5,142.5C 56.8076,141.975 56.3076,141.308 56,140.5C 54.6569,141.214 53.3236,140.88 52,139.5C 49.4199,141.691 46.9199,141.358 44.5,138.5C 43.7055,136.505 43.0388,134.505 42.5,132.5 Z"/></g>
<g><path style="opacity:1" fill="#babcc1" d="M 158.5,131.5 C 158.144,140.706 158.144,149.872 158.5,159C 158.193,162.376 157.526,165.543 156.5,168.5C 156.665,165.482 156.498,162.482 156,159.5C 155.817,162.365 155.317,165.031 154.5,167.5C 154.5,166.5 154.5,165.5 154.5,164.5C 154.5,163.167 154.5,161.833 154.5,160.5C 155.329,157.531 155.495,154.531 155,151.5C 154.667,152.833 154.333,154.167 154,155.5C 152.494,152.526 150.828,152.193 149,154.5C 147.649,152.981 146.149,151.648 144.5,150.5C 142.902,150.61 141.235,150.943 139.5,151.5C 138.803,149.615 137.803,149.282 136.5,150.5C 134.103,150.025 131.603,149.025 129,147.5C 128.667,148.167 128.333,148.833 128,149.5C 126.663,147.996 124.996,146.996 123,146.5C 121.983,149.028 120.816,149.028 119.5,146.5C 117.019,147.492 115.519,146.492 115,143.5C 114.667,144.167 114.333,144.833 114,145.5C 112.475,145.112 110.808,145.112 109,145.5C 108.667,144.833 108.333,144.167 108,143.5C 107,143.833 106,144.167 105,144.5C 104.676,142.431 103.842,142.098 102.5,143.5C 100.224,142.787 97.8907,142.287 95.5,142C 96.6956,141.346 96.6956,140.846 95.5,140.5C 94.1667,140.833 92.8333,141.167 91.5,141.5C 89.3894,140.051 87.0561,139.051 84.5,138.5C 83.0379,139.471 81.7046,139.138 80.5,137.5C 78.0367,137.413 75.5367,137.413 73,137.5C 72,136.5 71,135.5 70,134.5C 69.4309,138.361 68.5976,138.361 67.5,134.5C 65.1176,134.117 62.6176,134.117 60,134.5C 58.699,134.361 57.8656,133.695 57.5,132.5C 62.0536,132.745 66.5536,132.412 71,131.5C 82.8001,132.303 94.6334,132.803 106.5,133C 107.421,134.756 108.588,134.923 110,133.5C 111.261,133.759 112.261,134.426 113,135.5C 113.333,135.167 113.667,134.833 114,134.5C 118.114,135.927 122.281,137.26 126.5,138.5C 128.235,137.943 129.902,137.61 131.5,137.5C 132.192,138.025 132.692,138.692 133,139.5C 133.561,138.978 134.228,138.645 135,138.5C 137.527,140.097 140.194,141.43 143,142.5C 143.667,139.833 144.333,139.833 145,142.5C 145.915,141.672 146.581,140.672 147,139.5C 147.219,140.938 147.719,142.271 148.5,143.5C 154.785,142.616 157.285,138.949 156,132.5C 156.671,131.748 157.504,131.414 158.5,131.5 Z"/></g>
<g><path style="opacity:1" fill="#c1c3c8" d="M 156.5,128.5 C 157.906,128.973 158.573,129.973 158.5,131.5C 157.504,131.414 156.671,131.748 156,132.5C 157.285,138.949 154.785,142.616 148.5,143.5C 147.719,142.271 147.219,140.938 147,139.5C 146.581,140.672 145.915,141.672 145,142.5C 144.333,139.833 143.667,139.833 143,142.5C 140.194,141.43 137.527,140.097 135,138.5C 134.228,138.645 133.561,138.978 133,139.5C 132.692,138.692 132.192,138.025 131.5,137.5C 129.902,137.61 128.235,137.943 126.5,138.5C 122.281,137.26 118.114,135.927 114,134.5C 113.667,134.833 113.333,135.167 113,135.5C 112.261,134.426 111.261,133.759 110,133.5C 108.588,134.923 107.421,134.756 106.5,133C 94.6334,132.803 82.8001,132.303 71,131.5C 66.5536,132.412 62.0536,132.745 57.5,132.5C 52.5,132.5 47.5,132.5 42.5,132.5C 40.9519,132.821 40.2852,133.821 40.5,135.5C 39.2801,133.95 39.2801,132.284 40.5,130.5C 79.5144,131.161 118.181,130.494 156.5,128.5 Z"/></g>
<g><path style="opacity:1" fill="#b1b3b8" d="M 42.5,132.5 C 43.0388,134.505 43.7055,136.505 44.5,138.5C 46.9199,141.358 49.4199,141.691 52,139.5C 53.3236,140.88 54.6569,141.214 56,140.5C 56.3076,141.308 56.8076,141.975 57.5,142.5C 58.8425,141.098 59.6758,141.431 60,143.5C 62.2672,142.065 64.2672,142.398 66,144.5C 69.6518,143.09 72.9852,144.09 76,147.5C 78.955,144.737 81.6217,145.07 84,148.5C 87.8941,148.429 91.7274,148.429 95.5,148.5C 95.3505,149.552 95.5172,150.552 96,151.5C 98.072,148.846 99.7387,149.18 101,152.5C 101.667,151.167 102.333,151.167 103,152.5C 104.686,149.978 106.019,150.311 107,153.5C 107.875,151.487 109.209,151.487 111,153.5C 115.7,153.334 120.367,154.334 125,156.5C 125.333,156.167 125.667,155.833 126,155.5C 128.899,155.977 131.566,156.977 134,158.5C 137,158.5 140,158.5 143,158.5C 144.441,159.87 146.108,160.87 148,161.5C 149.395,160.185 150.395,160.519 151,162.5C 152.596,163.048 153.763,162.382 154.5,160.5C 154.5,161.833 154.5,163.167 154.5,164.5C 153.493,165.828 152.16,166.828 150.5,167.5C 149.318,165.355 147.818,165.355 146,167.5C 143.657,166.873 141.49,165.873 139.5,164.5C 137.671,165.282 136.171,164.616 135,162.5C 134.692,163.308 134.192,163.975 133.5,164.5C 128.663,162.991 123.829,161.325 119,159.5C 118.333,160.167 117.667,160.833 117,161.5C 112.751,159.477 108.251,158.144 103.5,157.5C 102.478,157.855 101.811,158.522 101.5,159.5C 99.9069,158.652 98.7403,157.319 98,155.5C 96.2859,156.925 94.9525,156.592 94,154.5C 93.6667,155.167 93.3333,155.833 93,156.5C 89.9702,155.949 86.9702,154.616 84,152.5C 82.8831,152.665 81.7164,152.998 80.5,153.5C 79.3044,153.154 79.3044,152.654 80.5,152C 78.2088,150.123 76.2088,150.29 74.5,152.5C 72.4929,151.829 70.6595,150.829 69,149.5C 67.2215,150.479 65.5548,150.146 64,148.5C 60.9371,149.568 58.2704,148.901 56,146.5C 53.8701,146.413 51.7034,146.413 49.5,146.5C 47.7419,145.872 46.2419,144.872 45,143.5C 44.6667,143.833 44.3333,144.167 44,144.5C 43.6667,143.167 43.3333,141.833 43,140.5C 42.6987,143.507 42.8654,146.507 43.5,149.5C 42.7321,148.737 42.2321,147.737 42,146.5C 41.5012,150.486 41.3345,154.486 41.5,158.5C 40.8162,152.099 40.1495,145.599 39.5,139C 40.3366,137.989 40.67,136.822 40.5,135.5C 40.2852,133.821 40.9519,132.821 42.5,132.5 Z"/></g>
<g><path style="opacity:1" fill="#abadb2" d="M 101.5,159.5 C 100.177,160.608 98.6773,160.608 97,159.5C 95.3566,160.315 93.8566,161.315 92.5,162.5C 88.9567,160.632 84.9567,159.799 80.5,160C 78.9391,159.682 77.7724,158.849 77,157.5C 72.3333,158.833 67.6667,158.833 63,157.5C 62.6827,155.699 62.016,155.366 61,156.5C 59.9207,154.606 58.5874,154.273 57,155.5C 56.2613,154.426 55.2613,153.759 54,153.5C 51.9269,153.761 49.9269,153.761 48,153.5C 47.3333,150.833 46.6667,150.833 46,153.5C 45.5204,151.867 44.6871,150.534 43.5,149.5C 42.8654,146.507 42.6987,143.507 43,140.5C 43.3333,141.833 43.6667,143.167 44,144.5C 44.3333,144.167 44.6667,143.833 45,143.5C 46.2419,144.872 47.7419,145.872 49.5,146.5C 51.7034,146.413 53.8701,146.413 56,146.5C 58.2704,148.901 60.9371,149.568 64,148.5C 65.5548,150.146 67.2215,150.479 69,149.5C 70.6595,150.829 72.4929,151.829 74.5,152.5C 76.2088,150.29 78.2088,150.123 80.5,152C 79.3044,152.654 79.3044,153.154 80.5,153.5C 81.7164,152.998 82.8831,152.665 84,152.5C 86.9702,154.616 89.9702,155.949 93,156.5C 93.3333,155.833 93.6667,155.167 94,154.5C 94.9525,156.592 96.2859,156.925 98,155.5C 98.7403,157.319 99.9069,158.652 101.5,159.5 Z"/></g>
<g><path style="opacity:1" fill="#a2a4a8" d="M 43.5,149.5 C 44.6871,150.534 45.5204,151.867 46,153.5C 46.6667,150.833 47.3333,150.833 48,153.5C 49.9269,153.761 51.9269,153.761 54,153.5C 55.2613,153.759 56.2613,154.426 57,155.5C 58.5874,154.273 59.9207,154.606 61,156.5C 62.016,155.366 62.6827,155.699 63,157.5C 67.6667,158.833 72.3333,158.833 77,157.5C 77.7724,158.849 78.9391,159.682 80.5,160C 84.9567,159.799 88.9567,160.632 92.5,162.5C 92.1562,172.149 96.4895,175.149 105.5,171.5C 106.848,172.186 108.015,173.186 109,174.5C 110.117,174.335 111.284,174.002 112.5,173.5C 114.897,173.975 117.397,174.975 120,176.5C 122.667,176.5 125.333,176.5 128,176.5C 130.713,178.13 133.713,179.13 137,179.5C 138.646,177.859 139.646,178.193 140,180.5C 141.343,179.786 142.676,180.12 144,181.5C 144.805,179.099 145.638,179.266 146.5,182C 148.313,181.954 149.979,182.12 151.5,182.5C 152.086,182.291 152.586,181.957 153,181.5C 153.829,176.863 154.329,172.196 154.5,167.5C 155.317,165.031 155.817,162.365 156,159.5C 156.498,162.482 156.665,165.482 156.5,168.5C 159.774,178.725 162.774,189.059 165.5,199.5C 161.5,199.5 157.5,199.5 153.5,199.5C 154.11,198.609 154.443,197.609 154.5,196.5C 155.652,191.015 155.818,185.349 155,179.5C 154.148,183.189 153.315,186.856 152.5,190.5C 150.801,190.66 149.134,190.494 147.5,190C 146.073,188.253 144.573,187.086 143,186.5C 142.667,187.167 142.333,187.833 142,188.5C 139.43,187.991 137.097,186.991 135,185.5C 133.984,186.634 133.317,186.301 133,184.5C 130.568,184.477 128.068,184.81 125.5,185.5C 124.749,184.624 124.249,183.624 124,182.5C 122.853,183.458 121.853,183.125 121,181.5C 120,182.167 119,182.833 118,183.5C 115.059,182.075 112.059,180.742 109,179.5C 106.974,180.019 104.974,180.353 103,180.5C 100.91,179.206 98.9097,178.206 97,177.5C 95.8525,178.458 94.8525,178.125 94,176.5C 90.8519,175.687 87.8519,175.687 85,176.5C 82.2656,175.638 82.0989,174.805 84.5,174C 82.8654,173.46 81.5321,173.96 80.5,175.5C 80.1667,174.833 79.8333,174.167 79.5,173.5C 77.6649,174.192 75.8316,173.858 74,172.5C 70.5713,172.729 67.2379,172.729 64,172.5C 63.3333,171.833 62.6667,171.167 62,170.5C 60.6667,170.5 59.3333,170.5 58,170.5C 56.6667,169.833 55.6667,168.833 55,167.5C 54.6667,168.5 54.3333,169.5 54,170.5C 51.3281,167.279 48.4948,166.612 45.5,168.5C 44.8319,166.031 44.1653,163.698 43.5,161.5C 42.3682,161.897 42.0349,163.897 42.5,167.5C 42.1667,167.5 41.8333,167.5 41.5,167.5C 41.5,164.5 41.5,161.5 41.5,158.5C 41.3345,154.486 41.5012,150.486 42,146.5C 42.2321,147.737 42.7321,148.737 43.5,149.5 Z"/></g>
<g><path style="opacity:1" fill="#c6c8cd" d="M 101.5,159.5 C 103.346,159.222 104.68,159.889 105.5,161.5C 104.666,165.089 104.666,168.422 105.5,171.5C 96.4895,175.149 92.1562,172.149 92.5,162.5C 93.8566,161.315 95.3566,160.315 97,159.5C 98.6773,160.608 100.177,160.608 101.5,159.5 Z"/></g>
<g><path style="opacity:1" fill="#a7a9ae" d="M 154.5,164.5 C 154.5,165.5 154.5,166.5 154.5,167.5C 154.329,172.196 153.829,176.863 153,181.5C 152.586,181.957 152.086,182.291 151.5,182.5C 149.979,182.12 148.313,181.954 146.5,182C 145.638,179.266 144.805,179.099 144,181.5C 142.676,180.12 141.343,179.786 140,180.5C 139.646,178.193 138.646,177.859 137,179.5C 133.713,179.13 130.713,178.13 128,176.5C 125.333,176.5 122.667,176.5 120,176.5C 117.397,174.975 114.897,173.975 112.5,173.5C 111.284,174.002 110.117,174.335 109,174.5C 108.015,173.186 106.848,172.186 105.5,171.5C 104.666,168.422 104.666,165.089 105.5,161.5C 104.68,159.889 103.346,159.222 101.5,159.5C 101.811,158.522 102.478,157.855 103.5,157.5C 108.251,158.144 112.751,159.477 117,161.5C 117.667,160.833 118.333,160.167 119,159.5C 123.829,161.325 128.663,162.991 133.5,164.5C 134.192,163.975 134.692,163.308 135,162.5C 136.171,164.616 137.671,165.282 139.5,164.5C 141.49,165.873 143.657,166.873 146,167.5C 147.818,165.355 149.318,165.355 150.5,167.5C 152.16,166.828 153.493,165.828 154.5,164.5 Z"/></g>
<g><path style="opacity:1" fill="#989a9f" d="M 43.5,161.5 C 44.1653,163.698 44.8319,166.031 45.5,168.5C 48.4948,166.612 51.3281,167.279 54,170.5C 54.3333,169.5 54.6667,168.5 55,167.5C 55.6667,168.833 56.6667,169.833 58,170.5C 59.3333,170.5 60.6667,170.5 62,170.5C 62.6667,171.167 63.3333,171.833 64,172.5C 67.2379,172.729 70.5713,172.729 74,172.5C 75.8316,173.858 77.6649,174.192 79.5,173.5C 79.8333,174.167 80.1667,174.833 80.5,175.5C 81.5321,173.96 82.8654,173.46 84.5,174C 82.0989,174.805 82.2656,175.638 85,176.5C 87.8519,175.687 90.8519,175.687 94,176.5C 94.8525,178.125 95.8525,178.458 97,177.5C 98.9097,178.206 100.91,179.206 103,180.5C 104.974,180.353 106.974,180.019 109,179.5C 112.059,180.742 115.059,182.075 118,183.5C 119,182.833 120,182.167 121,181.5C 121.853,183.125 122.853,183.458 124,182.5C 124.249,183.624 124.749,184.624 125.5,185.5C 128.068,184.81 130.568,184.477 133,184.5C 133.317,186.301 133.984,186.634 135,185.5C 137.097,186.991 139.43,187.991 142,188.5C 142.333,187.833 142.667,187.167 143,186.5C 144.573,187.086 146.073,188.253 147.5,190C 149.134,190.494 150.801,190.66 152.5,190.5C 153.315,186.856 154.148,183.189 155,179.5C 155.818,185.349 155.652,191.015 154.5,196.5C 154.062,195.494 153.396,195.494 152.5,196.5C 145.579,196.243 138.746,195.577 132,194.5C 130.187,194.593 128.354,194.927 126.5,195.5C 122.368,194.091 118.202,192.758 114,191.5C 113.055,191.905 112.388,192.572 112,193.5C 110.796,192.529 110.296,191.529 110.5,190.5C 109.483,193.028 108.316,193.028 107,190.5C 106.282,191.451 105.449,191.617 104.5,191C 105.696,190.346 105.696,189.846 104.5,189.5C 103.808,190.025 103.308,190.692 103,191.5C 102.751,190.376 102.251,189.376 101.5,188.5C 99.5675,189.52 97.5675,189.687 95.5,189C 96.6537,188.086 96.487,187.253 95,186.5C 92.2424,190.649 89.9091,190.316 88,185.5C 87.6667,186.167 87.3333,186.833 87,187.5C 85.2825,186.545 83.6158,185.545 82,184.5C 81.6667,185.167 81.3333,185.833 81,186.5C 79.4675,184.438 77.4675,183.104 75,182.5C 74.7167,185.742 73.8834,186.076 72.5,183.5C 71.8076,184.025 71.3076,184.692 71,185.5C 69.1164,184.023 67.1164,182.69 65,181.5C 64.6667,181.833 64.3333,182.167 64,182.5C 61.436,180.923 58.6026,179.923 55.5,179.5C 54.1575,180.902 53.3242,180.569 53,178.5C 52.6924,179.308 52.1924,179.975 51.5,180.5C 50.1861,179.687 49.0195,178.687 48,177.5C 47.6924,178.308 47.1924,178.975 46.5,179.5C 44.2377,173.712 43.2377,167.712 43.5,161.5 Z"/></g>
<g><path style="opacity:1" fill="#b9b9b9" d="M 41.5,167.5 C 41.8333,167.5 42.1667,167.5 42.5,167.5C 42.4285,177.699 43.0951,187.699 44.5,197.5C 44.8333,198.167 45.1667,198.833 45.5,199.5C 41.1667,199.5 36.8333,199.5 32.5,199.5C 33.6241,190.294 36.4575,181.627 41,173.5C 41.4955,171.527 41.6621,169.527 41.5,167.5 Z"/></g>
<g><path style="opacity:1" fill="#909297" d="M 43.5,161.5 C 43.2377,167.712 44.2377,173.712 46.5,179.5C 47.1924,178.975 47.6924,178.308 48,177.5C 49.0195,178.687 50.1861,179.687 51.5,180.5C 52.1924,179.975 52.6924,179.308 53,178.5C 53.3242,180.569 54.1575,180.902 55.5,179.5C 58.6026,179.923 61.436,180.923 64,182.5C 64.3333,182.167 64.6667,181.833 65,181.5C 67.1164,182.69 69.1164,184.023 71,185.5C 71.3076,184.692 71.8076,184.025 72.5,183.5C 73.8834,186.076 74.7167,185.742 75,182.5C 77.4675,183.104 79.4675,184.438 81,186.5C 81.3333,185.833 81.6667,185.167 82,184.5C 83.6158,185.545 85.2825,186.545 87,187.5C 87.3333,186.833 87.6667,186.167 88,185.5C 89.9091,190.316 92.2424,190.649 95,186.5C 96.487,187.253 96.6537,188.086 95.5,189C 97.5675,189.687 99.5675,189.52 101.5,188.5C 102.251,189.376 102.751,190.376 103,191.5C 103.308,190.692 103.808,190.025 104.5,189.5C 105.696,189.846 105.696,190.346 104.5,191C 105.449,191.617 106.282,191.451 107,190.5C 108.316,193.028 109.483,193.028 110.5,190.5C 110.296,191.529 110.796,192.529 112,193.5C 112.388,192.572 113.055,191.905 114,191.5C 118.202,192.758 122.368,194.091 126.5,195.5C 128.354,194.927 130.187,194.593 132,194.5C 138.746,195.577 145.579,196.243 152.5,196.5C 116.671,197.498 80.6705,197.832 44.5,197.5C 43.0951,187.699 42.4285,177.699 42.5,167.5C 42.0349,163.897 42.3682,161.897 43.5,161.5 Z"/></g>
<g><path style="opacity:1" fill="#6e7074" d="M 154.5,196.5 C 154.443,197.609 154.11,198.609 153.5,199.5C 117.5,199.5 81.5,199.5 45.5,199.5C 45.1667,198.833 44.8333,198.167 44.5,197.5C 80.6705,197.832 116.671,197.498 152.5,196.5C 153.396,195.494 154.062,195.494 154.5,196.5 Z"/></g>
</svg>
